<svg width="164" height="165" viewBox="0 0 164 165" fill="none" xmlns="http://www.w3.org/2000/svg">
<g clip-path="url(#clip0_79_9124)">
<rect x="0.149658" y="0.78302" width="163.433" height="163.433" rx="81.7167" fill="url(#paint0_linear_79_9124)"/>
<g filter="url(#filter0_dd_79_9124)">
<path d="M81.9315 38.9568L85.2984 33.1341C87.3767 29.4949 92.0114 28.268 95.6484 30.3476C99.2855 32.4271 100.512 37.0645 98.4334 40.7037L65.9908 96.8927H89.455C97.0617 96.8927 101.322 105.835 98.0177 112.032H29.2253C25.0271 112.032 21.6602 108.663 21.6602 104.462C21.6602 100.262 25.0271 96.8927 29.2253 96.8927H48.5121L73.2026 54.0751L65.492 40.6829C63.4137 37.0437 64.6399 32.4479 68.2769 30.3268C71.914 28.2472 76.5071 29.4742 78.627 33.1133L81.9315 38.9568ZM52.7519 119.83L45.4778 132.453C43.3995 136.092 38.7648 137.319 35.1277 135.239C31.4907 133.16 30.2645 128.523 32.3428 124.883L37.7464 115.525C43.8567 113.633 48.8239 115.089 52.7519 119.83ZM115.392 96.9343H135.074C139.272 96.9343 142.639 100.303 142.639 104.504C142.639 108.705 139.272 112.073 135.074 112.073H124.142L131.52 124.883C133.599 128.523 132.372 133.118 128.735 135.239C125.098 137.319 120.505 136.092 118.385 132.453C105.957 110.888 96.6252 94.7508 90.4318 83.9996C84.093 73.0612 88.6237 62.0813 93.0921 58.3589C98.0593 66.885 105.479 79.7574 115.392 96.9343Z" fill="white"/>
</g>
<g filter="url(#filter1_f_79_9124)">
<circle cx="82.1497" cy="82.783" r="80.9187" transform="rotate(-6.77743 82.1497 82.783)" stroke="url(#paint1_linear_79_9124)" stroke-width="1.59603"/>
</g>
<g filter="url(#filter2_f_79_9124)">
<circle cx="82.1496" cy="82.783" r="81.2379" transform="rotate(-169.693 82.1496 82.783)" stroke="url(#paint2_linear_79_9124)" stroke-width="0.957618"/>
</g>
</g>
<defs>
<filter id="filter0_dd_79_9124" x="17.6701" y="24.3684" width="132.151" height="118.106" filterUnits="userSpaceOnUse" color-interpolation-filters="sRGB">
<feFlood flood-opacity="0" result="BackgroundImageFix"/>
<feColorMatrix in="SourceAlpha" type="matrix" values="0 0 0 0 0 0 0 0 0 0 0 0 0 0 0 0 0 0 127 0" result="hardAlpha"/>
<feOffset dx="1.59603" dy="0.638412"/>
<feGaussianBlur stdDeviation="2.79305"/>
<feComposite in2="hardAlpha" operator="out"/>
<feColorMatrix type="matrix" values="0 0 0 0 0 0 0 0 0 0 0 0 0 0 0 0 0 0 0.05 0"/>
<feBlend mode="normal" in2="BackgroundImageFix" result="effect1_dropShadow_79_9124"/>
<feColorMatrix in="SourceAlpha" type="matrix" values="0 0 0 0 0 0 0 0 0 0 0 0 0 0 0 0 0 0 127 0" result="hardAlpha"/>
<feOffset dx="2.23444" dy="0.638412"/>
<feGaussianBlur stdDeviation="1.11722"/>
<feComposite in2="hardAlpha" operator="out"/>
<feColorMatrix type="matrix" values="0 0 0 0 0 0 0 0 0 0 0 0 0 0 0 0 0 0 0.2 0"/>
<feBlend mode="normal" in2="effect1_dropShadow_79_9124" result="effect2_dropShadow_79_9124"/>
<feBlend mode="normal" in="SourceGraphic" in2="effect2_dropShadow_79_9124" result="shape"/>
</filter>
<filter id="filter1_f_79_9124" x="-1.17098" y="-0.537688" width="166.641" height="166.641" filterUnits="userSpaceOnUse" color-interpolation-filters="sRGB">
<feFlood flood-opacity="0" result="BackgroundImageFix"/>
<feBlend mode="normal" in="SourceGraphic" in2="BackgroundImageFix" result="shape"/>
<feGaussianBlur stdDeviation="0.798015" result="effect1_foregroundBlur_79_9124"/>
</filter>
<filter id="filter2_f_79_9124" x="-1.17733" y="-0.543967" width="166.654" height="166.654" filterUnits="userSpaceOnUse" color-interpolation-filters="sRGB">
<feFlood flood-opacity="0" result="BackgroundImageFix"/>
<feBlend mode="normal" in="SourceGraphic" in2="BackgroundImageFix" result="shape"/>
<feGaussianBlur stdDeviation="0.798015" result="effect1_foregroundBlur_79_9124"/>
</filter>
<linearGradient id="paint0_linear_79_9124" x1="81.8664" y1="0.78302" x2="81.8664" y2="164.216" gradientUnits="userSpaceOnUse">
<stop stop-color="#18BEFB"/>
<stop offset="1" stop-color="#2073F3"/>
</linearGradient>
<linearGradient id="paint1_linear_79_9124" x1="44.8824" y1="12.9567" x2="62.5186" y2="39.2114" gradientUnits="userSpaceOnUse">
<stop stop-color="#70FBFF"/>
<stop offset="1" stop-color="#1065F0" stop-opacity="0"/>
</linearGradient>
<linearGradient id="paint2_linear_79_9124" x1="44.8823" y1="12.9567" x2="49.4638" y2="22.1356" gradientUnits="userSpaceOnUse">
<stop stop-color="#4A9BFF"/>
<stop offset="1" stop-color="#1065F0" stop-opacity="0"/>
</linearGradient>
<clipPath id="clip0_79_9124">
<rect x="0.149658" y="0.78302" width="163.433" height="163.433" rx="81.7167" fill="white"/>
</clipPath>
</defs>
</svg>
