<svg width="164" height="165" viewBox="0 0 164 165" fill="none" xmlns="http://www.w3.org/2000/svg">
<g clip-path="url(#clip0_79_9112)">
<rect x="0.416016" y="0.78302" width="163.433" height="163.433" rx="81.7167" fill="url(#paint0_linear_79_9112)"/>
<circle cx="67.7501" cy="95.2143" r="39.7873" fill="url(#paint1_linear_79_9112)"/>
<g filter="url(#filter0_ii_79_9112)">
<path fill-rule="evenodd" clip-rule="evenodd" d="M60.5669 32.9278C57.7621 35.7326 57.7621 40.2468 57.7621 49.2753V56.6911C60.9538 55.8659 64.3009 55.4269 67.7505 55.4269C89.7244 55.4269 107.538 73.2402 107.538 95.2141C107.538 98.5441 107.129 101.778 106.358 104.87H113.19C122.219 104.87 126.733 104.87 129.538 102.065C132.342 99.2601 132.342 94.7459 132.342 85.7174V49.2753C132.342 40.2468 132.342 35.7326 129.538 32.9278C126.733 30.123 122.219 30.123 113.19 30.123H76.9144C67.8859 30.123 63.3717 30.123 60.5669 32.9278Z" fill="url(#paint2_linear_79_9112)" fill-opacity="0.8"/>
</g>
<rect x="57.7617" y="30.1231" width="74.5803" height="74.7468" rx="9.57618" fill="url(#paint3_linear_79_9112)" fill-opacity="0.7"/>
<g filter="url(#filter1_bdii_79_9112)">
<path d="M43.841 102.175C42.2517 106.021 36.3827 105.555 35.8139 101.266C35.4531 98.5456 38.8403 92.2318 40.0194 89.6227C44.3847 79.963 52.9815 61.7638 65.3122 61.2681C76.4406 60.8207 77.884 70.9867 78.1122 79.5752C78.1514 81.0489 77.9782 89.252 79.8373 89.6093C82.4462 90.1106 84.555 85.163 85.4781 83.4943C88.5647 77.9149 91.8198 70.4337 98.8179 69.1003C106.976 67.5459 110.118 72.9902 110.367 80.1486C110.492 83.7278 110.367 88.6105 112.746 89.0121C115.45 89.4686 118.465 85.708 120.085 84.0841C124.23 79.9313 129.042 74.4033 135.409 74.2933C136.16 74.2804 136.541 75.2455 135.944 75.7276C135.25 76.2895 133.809 76.3488 132.964 76.7791C131.052 77.7524 129.476 79.28 128.095 80.8967C123.905 85.7983 119.719 95.8607 111.861 95.2965C105.541 94.8427 104.324 88.5883 103.876 83.4501C103.688 81.2889 104.024 76.8255 100.831 77.0968C97.8571 77.3494 95.9102 82.2844 94.7811 84.4543C91.4421 90.8712 87.2594 99.7449 78.4925 98.375C68.0866 96.7489 69.5985 84.059 69.1154 76.3694C69.0058 74.6259 69.0038 71.8674 67.6919 70.4919C65.3722 68.0597 60.3713 72.798 59.0403 74.265C57.6238 75.8263 56.3611 77.5246 55.1843 79.2717C53.2706 82.113 51.5802 85.1031 50.0183 88.1502C47.6763 92.7191 45.7979 97.4391 43.841 102.175Z" fill="#013B5E"/>
</g>
<g filter="url(#filter2_f_79_9112)">
<circle cx="82.4161" cy="82.7831" r="80.9187" stroke="url(#paint4_linear_79_9112)" stroke-width="1.59603"/>
</g>
</g>
<defs>
<filter id="filter0_ii_79_9112" x="57.7621" y="29.8037" width="74.5803" height="77.3004" filterUnits="userSpaceOnUse" color-interpolation-filters="sRGB">
<feFlood flood-opacity="0" result="BackgroundImageFix"/>
<feBlend mode="normal" in="SourceGraphic" in2="BackgroundImageFix" result="shape"/>
<feColorMatrix in="SourceAlpha" type="matrix" values="0 0 0 0 0 0 0 0 0 0 0 0 0 0 0 0 0 0 127 0" result="hardAlpha"/>
<feOffset dy="-0.319206"/>
<feGaussianBlur stdDeviation="0.877816"/>
<feComposite in2="hardAlpha" operator="arithmetic" k2="-1" k3="1"/>
<feColorMatrix type="matrix" values="0 0 0 0 0.225556 0 0 0 0 0.862988 0 0 0 0 0.966667 0 0 0 0.1 0"/>
<feBlend mode="normal" in2="shape" result="effect1_innerShadow_79_9112"/>
<feColorMatrix in="SourceAlpha" type="matrix" values="0 0 0 0 0 0 0 0 0 0 0 0 0 0 0 0 0 0 127 0" result="hardAlpha"/>
<feOffset dy="2.39404"/>
<feGaussianBlur stdDeviation="1.11722"/>
<feComposite in2="hardAlpha" operator="arithmetic" k2="-1" k3="1"/>
<feColorMatrix type="matrix" values="0 0 0 0 0.0514583 0 0 0 0 0.614088 0 0 0 0 0.65 0 0 0 0.12 0"/>
<feBlend mode="normal" in2="effect1_innerShadow_79_9112" result="effect2_innerShadow_79_9112"/>
</filter>
<filter id="filter1_bdii_79_9112" x="28.7646" y="56.4657" width="114.496" height="57.584" filterUnits="userSpaceOnUse" color-interpolation-filters="sRGB">
<feFlood flood-opacity="0" result="BackgroundImageFix"/>
<feGaussianBlur in="BackgroundImageFix" stdDeviation="0.319206"/>
<feComposite in2="SourceAlpha" operator="in" result="effect1_backgroundBlur_79_9112"/>
<feColorMatrix in="SourceAlpha" type="matrix" values="0 0 0 0 0 0 0 0 0 0 0 0 0 0 0 0 0 0 127 0" result="hardAlpha"/>
<feOffset dy="2.23444"/>
<feGaussianBlur stdDeviation="3.51127"/>
<feComposite in2="hardAlpha" operator="out"/>
<feColorMatrix type="matrix" values="0 0 0 0 0 0 0 0 0 0 0 0 0 0 0 0 0 0 0.35 0"/>
<feBlend mode="normal" in2="effect1_backgroundBlur_79_9112" result="effect2_dropShadow_79_9112"/>
<feBlend mode="normal" in="SourceGraphic" in2="effect2_dropShadow_79_9112" result="shape"/>
<feColorMatrix in="SourceAlpha" type="matrix" values="0 0 0 0 0 0 0 0 0 0 0 0 0 0 0 0 0 0 127 0" result="hardAlpha"/>
<feOffset dy="0.638412"/>
<feGaussianBlur stdDeviation="2.71325"/>
<feComposite in2="hardAlpha" operator="arithmetic" k2="-1" k3="1"/>
<feColorMatrix type="matrix" values="0 0 0 0 0.00142361 0 0 0 0 0.108589 0 0 0 0 0.170833 0 0 0 0.1 0"/>
<feBlend mode="normal" in2="shape" result="effect3_innerShadow_79_9112"/>
<feColorMatrix in="SourceAlpha" type="matrix" values="0 0 0 0 0 0 0 0 0 0 0 0 0 0 0 0 0 0 127 0" result="hardAlpha"/>
<feOffset dx="1.59603" dy="-1.11722"/>
<feGaussianBlur stdDeviation="1.99504"/>
<feComposite in2="hardAlpha" operator="arithmetic" k2="-1" k3="1"/>
<feColorMatrix type="matrix" values="0 0 0 0 0 0 0 0 0 0 0 0 0 0 0 0 0 0 0.2 0"/>
<feBlend mode="normal" in2="effect3_innerShadow_79_9112" result="effect4_innerShadow_79_9112"/>
</filter>
<filter id="filter2_f_79_9112" x="-0.896628" y="-0.529654" width="166.625" height="166.625" filterUnits="userSpaceOnUse" color-interpolation-filters="sRGB">
<feFlood flood-opacity="0" result="BackgroundImageFix"/>
<feBlend mode="normal" in="SourceGraphic" in2="BackgroundImageFix" result="shape"/>
<feGaussianBlur stdDeviation="0.798015" result="effect1_foregroundBlur_79_9112"/>
</filter>
<linearGradient id="paint0_linear_79_9112" x1="48.0575" y1="3.81548" x2="120.358" y2="156.795" gradientUnits="userSpaceOnUse">
<stop stop-color="#F0EFEF"/>
<stop offset="1" stop-color="#F0F2F1"/>
</linearGradient>
<linearGradient id="paint1_linear_79_9112" x1="67.7501" y1="55.4271" x2="67.7501" y2="135.002" gradientUnits="userSpaceOnUse">
<stop stop-color="#FAAF27"/>
<stop offset="1" stop-color="#FC5D5D"/>
</linearGradient>
<linearGradient id="paint2_linear_79_9112" x1="95.0522" y1="30.123" x2="95.0522" y2="104.87" gradientUnits="userSpaceOnUse">
<stop stop-color="#33D9F4"/>
<stop offset="0.132193" stop-color="#0EDBFE"/>
<stop offset="1" stop-color="#6EA6DA"/>
</linearGradient>
<linearGradient id="paint3_linear_79_9112" x1="95.0518" y1="30.1231" x2="95.0518" y2="104.87" gradientUnits="userSpaceOnUse">
<stop stop-color="#33D9F4"/>
<stop offset="0.132193" stop-color="#0EDBFE"/>
<stop offset="1" stop-color="#6EA6DA"/>
</linearGradient>
<linearGradient id="paint4_linear_79_9112" x1="45.1488" y1="12.9568" x2="68.1317" y2="51.3413" gradientUnits="userSpaceOnUse">
<stop stop-color="white"/>
<stop offset="1" stop-color="#F4F4F4"/>
</linearGradient>
<clipPath id="clip0_79_9112">
<rect x="0.416016" y="0.78302" width="163.433" height="163.433" rx="81.7167" fill="white"/>
</clipPath>
</defs>
</svg>
