<svg width="164" height="164" viewBox="0 0 164 164" fill="none" xmlns="http://www.w3.org/2000/svg">
<g clip-path="url(#clip0_79_9134)">
<rect x="0.216248" y="0.216431" width="163.433" height="163.433" rx="81.7167" fill="url(#paint0_linear_79_9134)"/>
<path d="M36.602 74.6835L42.6792 34.3039C42.9495 32.5078 44.4928 31.1794 46.3092 31.1794H117.695C119.521 31.1794 121.069 32.5208 121.329 34.3277L127.136 74.7073C127.454 76.9198 125.738 78.9007 123.502 78.9007H40.232C37.987 78.9007 36.2679 76.9035 36.602 74.6835Z" fill="white"/>
<rect x="78.4217" y="81.9336" width="7.02253" height="57.4571" fill="white"/>
<rect x="57.1945" y="135.241" width="49.3173" height="6.70332" rx="3.35166" fill="white"/>
<rect x="42.1918" y="66.2925" width="79.4823" height="3.99007" rx="1.99504" fill="#B8D8F1"/>
<path d="M97.5737 49.4234C97.5737 56.9315 90.5709 63.018 81.9326 63.018C73.2942 63.018 66.2915 56.9315 66.2915 49.4234C66.2915 41.9153 73.8789 35.8288 81.9326 35.8288C89.9862 35.8288 97.5737 41.9153 97.5737 49.4234Z" fill="#D9D9D9"/>
<mask id="mask0_79_9134" style="mask-type:alpha" maskUnits="userSpaceOnUse" x="66" y="35" width="32" height="29">
<path d="M97.5741 49.4234C97.5741 56.9315 90.5713 63.018 81.933 63.018C73.2947 63.018 66.2919 56.9315 66.2919 49.4234C66.2919 41.9154 73.8794 35.8289 81.933 35.8289C89.9866 35.8289 97.5741 41.9154 97.5741 49.4234Z" fill="#D9D9D9"/>
</mask>
<g mask="url(#mask0_79_9134)">
<path d="M82.1523 32.2476L81.933 49.5697L68.9232 38.1678L82.1523 32.2476Z" fill="#AB4287"/>
<path d="M74.0394 63.749L82.0061 49.4966L65.5611 56.367L74.0394 63.749Z" fill="#FBCE5A"/>
<path d="M62.199 46.9383L81.933 49.5695L68.2654 36.3404L62.199 46.9383Z" fill="#E85A5E"/>
<path d="M73.3085 64.8453L81.933 49.5697L98.305 54.5397L88.438 64.4068L73.3085 64.8453Z" fill="#66C155"/>
<path d="M81.933 49.5696V34.8056L99.5475 36.2674L99.109 54.6859L81.933 49.5696Z" fill="#61D9FE"/>
<path d="M65.2687 56.586L81.933 49.5695L65.2687 47.0114V56.586Z" fill="#FA9E27"/>
</g>
<g filter="url(#filter0_f_79_9134)">
<circle cx="82.2163" cy="82.2164" r="80.9187" transform="rotate(-6.77743 82.2163 82.2164)" stroke="url(#paint1_linear_79_9134)" stroke-width="1.59603"/>
</g>
<g filter="url(#filter1_f_79_9134)">
<circle cx="82.2164" cy="82.2165" r="81.2379" transform="rotate(-169.693 82.2164 82.2165)" stroke="url(#paint2_linear_79_9134)" stroke-width="0.957618"/>
</g>
</g>
<defs>
<filter id="filter0_f_79_9134" x="-1.10441" y="-1.10428" width="166.641" height="166.641" filterUnits="userSpaceOnUse" color-interpolation-filters="sRGB">
<feFlood flood-opacity="0" result="BackgroundImageFix"/>
<feBlend mode="normal" in="SourceGraphic" in2="BackgroundImageFix" result="shape"/>
<feGaussianBlur stdDeviation="0.798015" result="effect1_foregroundBlur_79_9134"/>
</filter>
<filter id="filter1_f_79_9134" x="-1.11056" y="-1.1104" width="166.654" height="166.654" filterUnits="userSpaceOnUse" color-interpolation-filters="sRGB">
<feFlood flood-opacity="0" result="BackgroundImageFix"/>
<feBlend mode="normal" in="SourceGraphic" in2="BackgroundImageFix" result="shape"/>
<feGaussianBlur stdDeviation="0.798015" result="effect1_foregroundBlur_79_9134"/>
</filter>
<linearGradient id="paint0_linear_79_9134" x1="81.933" y1="0.216431" x2="81.933" y2="163.65" gradientUnits="userSpaceOnUse">
<stop stop-color="#18BEFB"/>
<stop offset="0.83485" stop-color="#0058E6"/>
</linearGradient>
<linearGradient id="paint1_linear_79_9134" x1="44.949" y1="12.3901" x2="62.5852" y2="38.6448" gradientUnits="userSpaceOnUse">
<stop stop-color="#70FBFF"/>
<stop offset="1" stop-color="#1065F0" stop-opacity="0"/>
</linearGradient>
<linearGradient id="paint2_linear_79_9134" x1="44.9491" y1="12.3902" x2="49.5306" y2="21.5691" gradientUnits="userSpaceOnUse">
<stop stop-color="#4A9BFF"/>
<stop offset="1" stop-color="#1065F0" stop-opacity="0"/>
</linearGradient>
<clipPath id="clip0_79_9134">
<rect x="0.216248" y="0.216431" width="163.433" height="163.433" rx="81.7167" fill="white"/>
</clipPath>
</defs>
</svg>
