<svg width="164" height="164" viewBox="0 0 164 164" fill="none" xmlns="http://www.w3.org/2000/svg">
<g clip-path="url(#clip0_79_9128)">
<rect x="0.349426" y="0.216431" width="163.433" height="163.433" rx="81.7167" fill="url(#paint0_linear_79_9128)"/>
<path d="M33.383 46.3058C32.4851 46.3058 31.6392 46.4606 30.8386 46.7787L46.8747 63.271L63.0884 80.0589L63.3842 80.4136L63.8576 80.8865L64.331 81.3594L65.2778 82.3643L79.1837 96.6103C79.4152 96.7541 80.0861 97.3749 80.6103 97.6367C81.2856 97.9739 82.0174 98.2846 82.7718 98.3115C83.5859 98.3407 84.418 98.1077 85.1505 97.7517C85.6991 97.4851 85.9431 97.1029 86.5804 96.6103L102.676 79.9998L118.949 63.271L134.63 47.1334C133.623 46.5885 132.508 46.3058 131.316 46.3058H33.383ZM28.4716 48.3156C26.7615 49.9343 25.6904 52.3678 25.6904 55.1136V109.26C25.6904 111.484 26.4052 113.503 27.584 115.053L29.8326 112.925L46.5788 96.6694L61.4315 82.3052L61.1356 81.9505L44.8628 65.2217L28.59 48.4339L28.4716 48.3156ZM136.76 48.8477L120.901 65.2217L104.688 81.9505L104.392 82.2461L119.836 97.2014L136.582 113.457L137.588 114.403C138.49 112.958 139.009 111.178 139.009 109.26V55.1136C139.009 52.6653 138.159 50.4452 136.76 48.8477ZM63.3251 84.2559L48.5316 98.6201L31.7262 114.876L29.5959 116.945C30.719 117.667 31.997 118.127 33.383 118.127H131.316C132.982 118.127 134.494 117.487 135.754 116.472L134.689 115.408L117.883 99.1521L102.439 84.2559L88.5332 98.561C87.7805 99.0595 87.2776 99.6123 86.5427 99.9518C85.36 100.498 84.0637 100.96 82.7608 100.94C81.4544 100.92 80.1734 100.41 79.0009 99.8335C78.4124 99.5444 78.0988 99.257 77.4085 98.6792L63.3251 84.2559Z" fill="white"/>
<g filter="url(#filter0_f_79_9128)">
<circle cx="82.3495" cy="82.2164" r="80.9187" transform="rotate(-6.77743 82.3495 82.2164)" stroke="url(#paint1_linear_79_9128)" stroke-width="1.59603"/>
</g>
<g filter="url(#filter1_f_79_9128)">
<circle cx="82.3495" cy="82.2165" r="81.2379" transform="rotate(-169.693 82.3495 82.2165)" stroke="url(#paint2_linear_79_9128)" stroke-width="0.957618"/>
</g>
</g>
<defs>
<filter id="filter0_f_79_9128" x="-0.971274" y="-1.10428" width="166.641" height="166.641" filterUnits="userSpaceOnUse" color-interpolation-filters="sRGB">
<feFlood flood-opacity="0" result="BackgroundImageFix"/>
<feBlend mode="normal" in="SourceGraphic" in2="BackgroundImageFix" result="shape"/>
<feGaussianBlur stdDeviation="0.798015" result="effect1_foregroundBlur_79_9128"/>
</filter>
<filter id="filter1_f_79_9128" x="-0.977377" y="-1.1104" width="166.654" height="166.654" filterUnits="userSpaceOnUse" color-interpolation-filters="sRGB">
<feFlood flood-opacity="0" result="BackgroundImageFix"/>
<feBlend mode="normal" in="SourceGraphic" in2="BackgroundImageFix" result="shape"/>
<feGaussianBlur stdDeviation="0.798015" result="effect1_foregroundBlur_79_9128"/>
</filter>
<linearGradient id="paint0_linear_79_9128" x1="82.0661" y1="0.216431" x2="82.0661" y2="163.65" gradientUnits="userSpaceOnUse">
<stop stop-color="#196FFA"/>
<stop offset="1" stop-color="#00DBFF"/>
</linearGradient>
<linearGradient id="paint1_linear_79_9128" x1="45.0822" y1="12.3901" x2="62.7183" y2="38.6448" gradientUnits="userSpaceOnUse">
<stop stop-color="#93C1FF"/>
<stop offset="1" stop-color="#1065F0" stop-opacity="0"/>
</linearGradient>
<linearGradient id="paint2_linear_79_9128" x1="18.2868" y1="27.4376" x2="89.7589" y2="93.5223" gradientUnits="userSpaceOnUse">
<stop stop-color="#EBFBFF"/>
<stop offset="0.615299" stop-color="#1386FB" stop-opacity="0"/>
</linearGradient>
<clipPath id="clip0_79_9128">
<rect x="0.349426" y="0.216431" width="163.433" height="163.433" rx="81.7167" fill="white"/>
</clipPath>
</defs>
</svg>
