<svg width="165" height="164" viewBox="0 0 165 164" fill="none" xmlns="http://www.w3.org/2000/svg">
<g clip-path="url(#clip0_79_9131)">
<rect x="0.782837" y="0.216431" width="163.433" height="163.433" rx="81.7167" fill="url(#paint0_linear_79_9131)"/>
<path d="M82.7829 31.782C67.8407 31.7821 53.5105 36.7247 42.9447 45.5225C32.379 54.3204 26.4432 66.2529 26.4431 78.6949C26.4567 86.7878 28.9843 94.7402 33.7804 101.779C38.5765 108.818 45.4778 114.704 53.8137 118.866C51.5935 123.834 48.2638 128.494 43.9622 132.651C52.3039 131.187 60.1344 128.112 66.8443 123.665C72.0179 124.945 77.3857 125.599 82.7829 125.608C97.7251 125.608 112.055 120.665 122.621 111.867C133.187 103.069 139.123 91.137 139.123 78.6949C139.123 66.2529 133.187 54.3204 122.621 45.5225C112.055 36.7247 97.7251 31.7821 82.7829 31.782Z" fill="white"/>
<g filter="url(#filter0_f_79_9131)">
<circle cx="82.7829" cy="82.2165" r="80.9187" stroke="url(#paint1_linear_79_9131)" stroke-width="1.59603"/>
</g>
<g filter="url(#filter1_f_79_9131)">
<circle cx="82.7829" cy="82.2164" r="81.3975" transform="rotate(171.236 82.7829 82.2164)" stroke="url(#paint2_linear_79_9131)" stroke-width="0.638412"/>
</g>
</g>
<defs>
<filter id="filter0_f_79_9131" x="-0.529837" y="-1.09624" width="166.625" height="166.626" filterUnits="userSpaceOnUse" color-interpolation-filters="sRGB">
<feFlood flood-opacity="0" result="BackgroundImageFix"/>
<feBlend mode="normal" in="SourceGraphic" in2="BackgroundImageFix" result="shape"/>
<feGaussianBlur stdDeviation="0.798015" result="effect1_foregroundBlur_79_9131"/>
</filter>
<filter id="filter1_f_79_9131" x="-0.541403" y="-1.10792" width="166.649" height="166.649" filterUnits="userSpaceOnUse" color-interpolation-filters="sRGB">
<feFlood flood-opacity="0" result="BackgroundImageFix"/>
<feBlend mode="normal" in="SourceGraphic" in2="BackgroundImageFix" result="shape"/>
<feGaussianBlur stdDeviation="0.798015" result="effect1_foregroundBlur_79_9131"/>
</filter>
<linearGradient id="paint0_linear_79_9131" x1="82.4995" y1="0.216431" x2="82.4995" y2="163.65" gradientUnits="userSpaceOnUse">
<stop stop-color="#5BF675"/>
<stop offset="1" stop-color="#0CBD2A"/>
</linearGradient>
<linearGradient id="paint1_linear_79_9131" x1="45.5156" y1="12.3902" x2="68.4984" y2="50.7747" gradientUnits="userSpaceOnUse">
<stop stop-color="#C3FFB5"/>
<stop offset="1" stop-color="#F4F4F4" stop-opacity="0"/>
</linearGradient>
<linearGradient id="paint2_linear_79_9131" x1="45.5156" y1="12.3901" x2="55.5888" y2="25.5405" gradientUnits="userSpaceOnUse">
<stop stop-color="#C3FFB5"/>
<stop offset="1" stop-color="#F4F4F4" stop-opacity="0"/>
</linearGradient>
<clipPath id="clip0_79_9131">
<rect x="0.782837" y="0.216431" width="163.433" height="163.433" rx="81.7167" fill="white"/>
</clipPath>
</defs>
</svg>
