<svg width="165" height="165" viewBox="0 0 165 165" fill="none" xmlns="http://www.w3.org/2000/svg">
<g clip-path="url(#clip0_79_9121)">
<rect x="0.716248" y="0.78302" width="163.433" height="163.433" rx="81.7167" fill="url(#paint0_linear_79_9121)"/>
<g clip-path="url(#clip1_79_9121)">
<path fill-rule="evenodd" clip-rule="evenodd" d="M116.43 30.9049H112.213V32.2862C112.213 33.5964 111.151 34.6585 109.84 34.6585C108.53 34.6585 107.468 33.5964 107.468 32.2862V30.9049H103.251V32.2862C103.251 33.5964 102.189 34.6585 100.878 34.6585C99.5683 34.6585 98.5062 33.5964 98.5062 32.2862V30.9049H94.2888V32.2862C94.2888 33.5964 93.2267 34.6585 91.9166 34.6585C90.6064 34.6585 89.5443 33.5964 89.5443 32.2862V30.9049H85.3269V32.2862C85.3269 33.5964 84.2648 34.6585 82.9546 34.6585C81.6445 34.6585 80.5824 33.5964 80.5824 32.2862V30.9049H76.365V32.2862C76.365 33.5964 75.3029 34.6585 73.9927 34.6585C72.6825 34.6585 71.6204 33.5964 71.6204 32.2862V30.9049H67.4029V32.2862C67.4029 33.5964 66.3408 34.6585 65.0306 34.6585C63.7205 34.6585 62.6584 33.5964 62.6584 32.2862V30.9049H58.441V32.2862C58.441 33.5964 57.3789 34.6585 56.0687 34.6585C54.7585 34.6585 53.6964 33.5964 53.6964 32.2862V30.9049H49.4791V32.2862C49.4791 33.5964 48.417 34.6585 47.1068 34.6585C45.7966 34.6585 44.7345 33.5964 44.7345 32.2862V30.9049H39.4628V134.328H126.446V30.9049H121.175V32.2862C121.175 33.5964 120.113 34.6585 118.802 34.6585C117.492 34.6585 116.43 33.5964 116.43 32.2862V30.9049Z" fill="white"/>
</g>
<path fill-rule="evenodd" clip-rule="evenodd" d="M51.1145 50.2243H114.903V54.4417H51.1145V50.2243Z" fill="url(#paint1_linear_79_9121)"/>
<path fill-rule="evenodd" clip-rule="evenodd" d="M51.1145 70.402H114.903V74.6194H51.1145V70.402Z" fill="url(#paint2_linear_79_9121)"/>
<path fill-rule="evenodd" clip-rule="evenodd" d="M51.1145 90.5797H114.903V94.797H51.1145V90.5797Z" fill="url(#paint3_linear_79_9121)"/>
<path fill-rule="evenodd" clip-rule="evenodd" d="M51.1145 110.757H114.903V114.975H51.1145V110.757Z" fill="url(#paint4_linear_79_9121)"/>
<g filter="url(#filter0_f_79_9121)">
<circle cx="82.7163" cy="82.7831" r="80.9187" stroke="url(#paint5_linear_79_9121)" stroke-width="1.59603"/>
</g>
<g filter="url(#filter1_f_79_9121)">
<circle cx="82.7163" cy="82.7829" r="80.9187" transform="rotate(-170.314 82.7163 82.7829)" stroke="url(#paint6_linear_79_9121)" stroke-width="1.59603"/>
</g>
</g>
<defs>
<filter id="filter0_f_79_9121" x="-0.596426" y="-0.529654" width="166.626" height="166.625" filterUnits="userSpaceOnUse" color-interpolation-filters="sRGB">
<feFlood flood-opacity="0" result="BackgroundImageFix"/>
<feBlend mode="normal" in="SourceGraphic" in2="BackgroundImageFix" result="shape"/>
<feGaussianBlur stdDeviation="0.798015" result="effect1_foregroundBlur_79_9121"/>
</filter>
<filter id="filter1_f_79_9121" x="-0.290358" y="-0.223738" width="166.013" height="166.013" filterUnits="userSpaceOnUse" color-interpolation-filters="sRGB">
<feFlood flood-opacity="0" result="BackgroundImageFix"/>
<feBlend mode="normal" in="SourceGraphic" in2="BackgroundImageFix" result="shape"/>
<feGaussianBlur stdDeviation="0.638412" result="effect1_foregroundBlur_79_9121"/>
</filter>
<linearGradient id="paint0_linear_79_9121" x1="38.9412" y1="0.783022" x2="122.812" y2="164.216" gradientUnits="userSpaceOnUse">
<stop stop-color="#FFD655"/>
<stop offset="1" stop-color="#ECB400"/>
</linearGradient>
<linearGradient id="paint1_linear_79_9121" x1="83.0085" y1="47.193" x2="83.0085" y2="54.4417" gradientUnits="userSpaceOnUse">
<stop stop-color="#C7C5C9"/>
<stop offset="0.729167" stop-color="#C7C5C9" stop-opacity="0"/>
</linearGradient>
<linearGradient id="paint2_linear_79_9121" x1="83.0085" y1="67.3707" x2="83.0085" y2="74.6194" gradientUnits="userSpaceOnUse">
<stop stop-color="#C7C5C9"/>
<stop offset="0.729167" stop-color="#C7C5C9" stop-opacity="0"/>
</linearGradient>
<linearGradient id="paint3_linear_79_9121" x1="83.0085" y1="87.5484" x2="83.0085" y2="94.797" gradientUnits="userSpaceOnUse">
<stop stop-color="#C7C5C9"/>
<stop offset="0.729167" stop-color="#C7C5C9" stop-opacity="0"/>
</linearGradient>
<linearGradient id="paint4_linear_79_9121" x1="83.0085" y1="107.726" x2="83.0085" y2="114.975" gradientUnits="userSpaceOnUse">
<stop stop-color="#C7C5C9"/>
<stop offset="0.729167" stop-color="#C7C5C9" stop-opacity="0"/>
</linearGradient>
<linearGradient id="paint5_linear_79_9121" x1="45.449" y1="12.9568" x2="79.0454" y2="77.197" gradientUnits="userSpaceOnUse">
<stop stop-color="white"/>
<stop offset="1" stop-color="white" stop-opacity="0"/>
</linearGradient>
<linearGradient id="paint6_linear_79_9121" x1="31.6437" y1="15.9688" x2="41.1921" y2="28.7491" gradientUnits="userSpaceOnUse">
<stop stop-color="#FFEFB4"/>
<stop offset="1" stop-color="white" stop-opacity="0"/>
</linearGradient>
<clipPath id="clip0_79_9121">
<rect x="0.716248" y="0.78302" width="163.433" height="163.433" rx="81.7167" fill="white"/>
</clipPath>
<clipPath id="clip1_79_9121">
<path d="M39.4635 30.9052H126.447V127.944C126.447 131.47 123.589 134.328 120.063 134.328H45.8476C42.3218 134.328 39.4635 131.47 39.4635 127.944V30.9052Z" fill="white"/>
</clipPath>
</defs>
</svg>
