<svg width="165" height="165" viewBox="0 0 165 165" fill="none" xmlns="http://www.w3.org/2000/svg">
<g clip-path="url(#clip0_79_9115)">
<rect x="0.849426" y="0.78302" width="163.433" height="163.433" rx="81.7167" fill="url(#paint0_linear_79_9115)"/>
<path d="M83.0446 23.1271V34.2398" stroke="white" stroke-width="1.59603" stroke-linecap="round"/>
<path d="M83.0446 131.238V142.351" stroke="white" stroke-width="1.59603" stroke-linecap="round"/>
<path d="M23.3535 82.8182L34.4662 82.8182" stroke="white" stroke-width="1.59603" stroke-linecap="round"/>
<path d="M131.464 82.8182L142.577 82.8182" stroke="white" stroke-width="1.59603" stroke-linecap="round"/>
<path d="M72.8747 23.9872L74.7704 34.937" stroke="white" stroke-width="1.59603" stroke-linecap="round"/>
<path d="M91.3167 130.513L93.2123 141.463" stroke="white" stroke-width="1.59603" stroke-linecap="round"/>
<path d="M24.2407 92.9858L35.1905 91.0902" stroke="white" stroke-width="1.59603" stroke-linecap="round"/>
<path d="M130.767 74.5439L141.717 72.6483" stroke="white" stroke-width="1.59603" stroke-linecap="round"/>
<path d="M62.7884 26.6487L66.5642 37.1003" stroke="white" stroke-width="1.59603" stroke-linecap="round"/>
<path d="M99.5208 128.328L103.297 138.779" stroke="white" stroke-width="1.59603" stroke-linecap="round"/>
<path d="M26.9294 103.07L37.381 99.2941" stroke="white" stroke-width="1.59603" stroke-linecap="round"/>
<path d="M128.609 66.3373L139.06 62.5616" stroke="white" stroke-width="1.59603" stroke-linecap="round"/>
<path d="M53.0966 31.1609L58.6789 40.7697" stroke="white" stroke-width="1.59603" stroke-linecap="round"/>
<path d="M107.404 124.641L112.987 134.25" stroke="white" stroke-width="1.59603" stroke-linecap="round"/>
<path d="M31.4684 112.759L41.0772 107.177" stroke="white" stroke-width="1.59603" stroke-linecap="round"/>
<path d="M124.949 58.4511L134.558 52.8688" stroke="white" stroke-width="1.59603" stroke-linecap="round"/>
<path d="M44.7646 37.0009L51.9001 45.5201" stroke="white" stroke-width="1.59603" stroke-linecap="round"/>
<path d="M114.182 119.881L121.318 128.4" stroke="white" stroke-width="1.59603" stroke-linecap="round"/>
<path d="M37.3317 121.089L45.851 113.953" stroke="white" stroke-width="1.59603" stroke-linecap="round"/>
<path d="M120.212 51.6713L128.731 44.5358" stroke="white" stroke-width="1.59603" stroke-linecap="round"/>
<path d="M37.2716 44.506L45.8038 51.6258" stroke="white" stroke-width="1.59603" stroke-linecap="round"/>
<path d="M120.278 113.772L128.811 120.892" stroke="white" stroke-width="1.59603" stroke-linecap="round"/>
<path d="M44.8582 128.58L51.9781 120.048" stroke="white" stroke-width="1.59603" stroke-linecap="round"/>
<path d="M114.124 45.5735L121.244 37.0412" stroke="white" stroke-width="1.59603" stroke-linecap="round"/>
<path d="M31.43 52.8373L41.0477 58.4043" stroke="white" stroke-width="1.59603" stroke-linecap="round"/>
<path d="M124.997 106.997L134.614 112.564" stroke="white" stroke-width="1.59603" stroke-linecap="round"/>
<path d="M53.1879 134.401L58.755 124.783" stroke="white" stroke-width="1.59603" stroke-linecap="round"/>
<path d="M107.347 40.8346L112.914 31.2169" stroke="white" stroke-width="1.59603" stroke-linecap="round"/>
<path d="M26.9903 62.3034L37.4321 66.1061" stroke="white" stroke-width="1.59603" stroke-linecap="round"/>
<path d="M128.574 99.2983L139.016 103.101" stroke="white" stroke-width="1.59603" stroke-linecap="round"/>
<path d="M62.6519 138.817L66.4546 128.375" stroke="white" stroke-width="1.59603" stroke-linecap="round"/>
<path d="M99.6467 37.2328L103.449 26.791" stroke="white" stroke-width="1.59603" stroke-linecap="round"/>
<path d="M24.282 72.3374L35.2254 74.2698" stroke="white" stroke-width="1.59603" stroke-linecap="round"/>
<path d="M130.746 91.1376L141.689 93.0701" stroke="white" stroke-width="1.59603" stroke-linecap="round"/>
<path d="M72.6835 141.499L74.616 130.556" stroke="white" stroke-width="1.59603" stroke-linecap="round"/>
<path d="M91.4838 35.0356L93.4162 24.0922" stroke="white" stroke-width="1.59603" stroke-linecap="round"/>
<path d="M88.0177 88.6114L77.2671 76.272L36.9149 121.97C36.0202 122.983 35.5729 123.49 35.5142 123.639C35.2409 124.335 35.8777 125.045 36.5993 124.849C36.7539 124.807 37.3061 124.417 38.4103 123.637L88.0177 88.6114Z" fill="#F7FCFE"/>
<path d="M77.267 76.272L78.1287 75.6651C78.1725 75.6333 78.2246 75.5965 78.2877 75.552L126.678 41.4178C127.778 40.6417 128.328 40.2537 128.482 40.2116C129.204 40.0156 129.84 40.7252 129.567 41.4211C129.509 41.5703 129.064 42.0751 128.173 43.0848L88.8684 87.6469C88.812 87.7108 88.7661 87.7628 88.7269 87.8057L88.0176 88.6114L77.267 76.272Z" fill="#FA2D15"/>
<g filter="url(#filter0_f_79_9115)">
<circle cx="82.8495" cy="82.783" r="80.9187" transform="rotate(-6.77743 82.8495 82.783)" stroke="url(#paint1_linear_79_9115)" stroke-width="1.59603"/>
</g>
</g>
<defs>
<filter id="filter0_f_79_9115" x="-0.471213" y="-0.537688" width="166.641" height="166.641" filterUnits="userSpaceOnUse" color-interpolation-filters="sRGB">
<feFlood flood-opacity="0" result="BackgroundImageFix"/>
<feBlend mode="normal" in="SourceGraphic" in2="BackgroundImageFix" result="shape"/>
<feGaussianBlur stdDeviation="0.798015" result="effect1_foregroundBlur_79_9115"/>
</filter>
<linearGradient id="paint0_linear_79_9115" x1="82.5661" y1="0.78302" x2="82.5661" y2="164.216" gradientUnits="userSpaceOnUse">
<stop stop-color="#17D4F9"/>
<stop offset="1" stop-color="#105EF0"/>
</linearGradient>
<linearGradient id="paint1_linear_79_9115" x1="45.5822" y1="12.9567" x2="63.2183" y2="39.2114" gradientUnits="userSpaceOnUse">
<stop stop-color="#70FBFF"/>
<stop offset="1" stop-color="#1065F0" stop-opacity="0"/>
</linearGradient>
<clipPath id="clip0_79_9115">
<rect x="0.849426" y="0.78302" width="163.433" height="163.433" rx="81.7167" fill="white"/>
</clipPath>
</defs>
</svg>
