<svg width="164" height="164" viewBox="0 0 164 164" fill="none" xmlns="http://www.w3.org/2000/svg">
<g clip-path="url(#clip0_79_9108)">
<rect x="0.432983" y="0.349609" width="163.433" height="163.433" rx="81.7167" fill="#252628"/>
<path fill-rule="evenodd" clip-rule="evenodd" d="M84.3817 49.2119C84.5138 49.8954 85.0743 50.4103 85.7624 50.5156C86.205 50.5833 86.6447 50.66 87.0812 50.7456C87.7929 50.8851 88.5217 50.5594 88.8625 49.9191L91.2773 45.3826C91.4867 44.9892 91.9399 44.7922 92.3705 44.9076L92.429 44.9233C92.8604 45.0389 93.1546 45.4373 93.1381 45.8836L92.9362 51.3553C92.9114 52.0267 93.3114 52.6382 93.9251 52.9119C94.2102 53.039 94.4931 53.1702 94.7738 53.3054C95.4235 53.6182 96.2061 53.4903 96.6981 52.9631L100.47 48.9217C100.774 48.5958 101.263 48.5229 101.649 48.7458L101.702 48.7761C102.088 48.9994 102.269 49.4604 102.138 49.8872L100.421 55.463C100.223 56.1069 100.453 56.8029 100.978 57.2254C101.16 57.3726 101.341 57.5217 101.521 57.6728C102.067 58.1327 102.848 58.2063 103.454 57.8281L108.434 54.7192C108.812 54.4832 109.303 54.5392 109.618 54.8544L109.661 54.8973C109.977 55.2131 110.033 55.7052 109.795 56.0835L105.985 62.1543C105.963 62.19 105.965 62.2359 105.991 62.2688C106.019 62.3032 106.065 62.3156 106.106 62.299L112.755 59.605C113.168 59.4376 113.642 59.5773 113.898 59.9421L113.933 59.9917C114.19 60.3571 114.16 60.8515 113.861 61.1833L112.694 62.4777C111.634 63.6535 112.748 65.4887 114.28 65.0911L116.077 64.6249C116.522 64.5095 116.987 64.7277 117.184 65.143C117.38 65.5575 117.256 66.0547 116.886 66.3263L111.44 70.3286C111.089 70.5865 110.954 71.0459 111.101 71.4562C111.243 71.855 111.62 72.125 112.044 72.1176L118.8 71.9996C119.246 71.9918 119.638 72.2925 119.746 72.7249L119.761 72.7837C119.869 73.217 119.663 73.6676 119.265 73.8697L113.538 76.777C112.962 77.0694 112.642 77.6956 112.72 78.3371C112.797 78.9796 113.259 79.5189 113.89 79.6648L120.156 81.1145C120.59 81.2149 120.898 81.6017 120.898 82.0474V82.1081C120.898 82.5547 120.589 82.942 120.154 83.0416L114.004 84.4485C113.322 84.6044 112.826 85.186 112.747 85.8805C112.732 86.0128 112.716 86.1449 112.7 86.2767C112.614 86.9545 112.942 87.6234 113.545 87.9444L119.117 90.9102C119.51 91.1196 119.707 91.5728 119.592 92.0033L119.576 92.0619C119.46 92.4933 119.062 92.7875 118.616 92.771L112.462 92.5438C111.756 92.5178 111.121 92.9603 110.87 93.6205C110.811 93.7766 110.75 93.9321 110.689 94.087C110.438 94.7172 110.583 95.4415 111.079 95.9043L115.578 100.103C115.904 100.407 115.977 100.896 115.754 101.282L115.723 101.335C115.5 101.721 115.039 101.903 114.612 101.771L108.95 100.028C108.268 99.8177 107.533 100.088 107.123 100.671C106.996 100.851 106.867 101.03 106.737 101.207C106.338 101.75 106.294 102.482 106.651 103.054L109.78 108.067C110.016 108.445 109.96 108.936 109.645 109.251L109.602 109.294C109.286 109.61 108.794 109.666 108.416 109.428L102.811 105.91C102.705 105.844 102.569 105.857 102.477 105.94C102.392 106.018 102.363 106.141 102.407 106.249L104.894 112.388C105.062 112.801 104.922 113.275 104.557 113.531L104.508 113.566C104.142 113.822 103.648 113.792 103.316 113.493L98.5153 109.166C98.4611 109.117 98.3808 109.111 98.3196 109.151C98.2609 109.189 98.2333 109.261 98.2517 109.328L99.8139 115.085C99.9343 115.529 99.7212 115.996 99.3082 116.198C98.8958 116.399 98.3973 116.28 98.1216 115.913L95.1995 112.028C94.8498 111.563 94.2234 111.41 93.6902 111.643C93.2186 111.848 92.9111 112.317 92.9288 112.831L93.1158 118.257C93.1312 118.702 92.8371 119.1 92.4066 119.215L92.3481 119.231C91.9167 119.346 91.4627 119.148 91.2538 118.754L89.0067 114.507C88.6656 113.862 87.9314 113.535 87.2162 113.679C86.7533 113.771 86.2868 113.854 85.8169 113.927C85.152 114.03 84.6048 114.516 84.4532 115.172L83.385 119.789C83.2845 120.223 82.8977 120.53 82.452 120.53H82.3914C81.9448 120.53 81.5575 120.222 81.4579 119.786L80.4803 115.513C80.317 114.799 79.6888 114.292 78.9579 114.249C78.2658 114.209 77.5797 114.146 76.9001 114.062C76.2001 113.976 75.5132 114.33 75.206 114.964L73.6006 118.282C73.4004 118.696 72.9331 118.908 72.4892 118.789C72.0461 118.671 71.7479 118.254 71.7804 117.796L72.022 114.39C72.0755 113.636 71.5909 112.952 70.8724 112.716C70.056 112.449 69.2541 112.149 68.4681 111.819C67.8105 111.543 67.0444 111.704 66.5783 112.244L64.416 114.747C64.1156 115.095 63.6092 115.179 63.2112 114.95C62.8139 114.72 62.6337 114.24 62.7835 113.807L63.7995 110.866C64.0447 110.156 63.7596 109.375 63.1343 108.96C62.3719 108.453 61.6324 107.914 60.9177 107.345C60.3536 106.897 59.5624 106.848 58.9661 107.253L56.4593 108.956C56.0791 109.214 55.568 109.164 55.2431 108.839C54.9187 108.515 54.8688 108.005 55.1257 107.625L56.791 105.161C57.1857 104.578 57.1209 103.801 56.6584 103.269C56.2082 102.752 55.4739 102.573 54.8484 102.855L52.1425 104.075C51.7235 104.264 51.2286 104.127 50.9644 103.751C50.7007 103.376 50.7394 102.865 51.058 102.534L53.2884 100.223C53.6442 99.8539 53.6979 99.2901 53.4319 98.8521C53.1818 98.4402 52.7001 98.2245 52.2294 98.3275L48.7558 99.0875C48.3204 99.1827 47.8768 98.965 47.6858 98.5622L47.6599 98.5075C47.4685 98.1039 47.5815 97.6217 47.9322 97.3452L50.3478 95.4407C50.912 94.9958 51.1054 94.2303 50.8516 93.5581C50.7251 93.2232 50.604 92.8856 50.4885 92.5455C50.2667 91.8922 49.6704 91.432 48.9808 91.4141L45.3835 91.3211C44.9241 91.3092 44.5377 90.9711 44.4631 90.5177C44.3886 90.065 44.6454 89.6215 45.0758 89.4624L48.0407 88.3667C48.7657 88.0988 49.1902 87.3504 49.0861 86.5845C48.9987 85.9407 48.9303 85.2908 48.8816 84.6355C48.8265 83.8925 48.2931 83.2645 47.5613 83.1246L44.7468 82.5866C44.2954 82.5003 43.969 82.104 43.969 81.6444C43.969 81.1856 44.2944 80.7897 44.7449 80.7026L47.6735 80.1365C48.3824 79.9994 48.9068 79.403 48.9856 78.6852C49.0873 77.7586 49.2285 76.8439 49.4074 75.9428C49.5536 75.2065 49.2014 74.4537 48.5257 74.1267L45.784 72.8C45.3703 72.5998 45.1576 72.1325 45.2765 71.6886C45.3953 71.2455 45.812 70.9473 46.2697 70.9798L49.5003 71.209C50.212 71.2595 50.8669 70.8299 51.1352 70.1688C51.4637 69.3593 51.8243 68.5662 52.2155 67.7912C52.5563 67.1158 52.4136 66.2891 51.8411 65.7945L49.3188 63.6156C48.971 63.3152 48.8865 62.8087 49.1163 62.4108C49.3457 62.0134 49.8254 61.8333 50.2591 61.9831L53.663 63.159C54.3302 63.3896 55.0664 63.1518 55.4988 62.5938C55.9879 61.9625 56.5001 61.3499 57.0341 60.7574C57.5422 60.1936 57.6203 59.3551 57.1939 58.7272L55.1103 55.6587C54.8521 55.2785 54.9016 54.7674 55.2265 54.4425C55.5509 54.1181 56.061 54.0682 56.4411 54.3251L60.0526 56.7665C60.4678 57.0472 61.016 57.0226 61.4143 56.7183C61.8455 56.3888 62.0036 55.8069 61.7806 55.3121L59.9911 51.3419C59.8022 50.9229 59.9389 50.428 60.315 50.1638C60.6904 49.9001 61.2014 49.9388 61.5316 50.2574L65.1942 53.7911C65.3664 53.9573 65.6263 53.9918 65.8376 53.8795C66.0585 53.7621 66.1752 53.5117 66.1191 53.2679L65.0386 48.5799C64.9385 48.1456 65.1513 47.6996 65.5519 47.5042L65.6064 47.4776C66.0078 47.2818 66.4912 47.3895 66.7716 47.7371L69.5733 51.2105C69.9398 51.6648 70.5504 51.8365 71.1065 51.6589C71.73 51.4599 72.1515 50.8663 72.1038 50.2134L71.7578 45.4772C71.7244 45.0188 72.0227 44.6009 72.4666 44.482C72.9098 44.3633 73.3764 44.5751 73.5771 44.9877L75.7373 49.4283C76.041 50.0526 76.7131 50.4049 77.4034 50.3307C77.9313 50.2739 78.463 50.23 78.9982 50.1991C79.7522 50.1557 80.395 49.6191 80.5368 48.8773L81.4794 43.9462C81.5657 43.4948 81.962 43.1684 82.4216 43.1684C82.8804 43.1684 83.2763 43.4938 83.3634 43.9443L84.3817 49.2119ZM55.5568 77.6595C55.6285 77.2592 55.9219 76.923 56.0397 76.5339C56.0428 76.5238 56.0457 76.5136 56.0484 76.5034L57.0181 72.8846C57.0796 72.6549 57.0912 72.4091 57.184 72.1901C61.0942 62.9716 70.2283 56.5055 80.8727 56.5055C95.0774 56.5055 106.593 68.0207 106.593 82.2255C106.593 96.4302 95.0774 107.945 80.8727 107.945C77.3643 107.945 74.02 107.243 70.9728 105.971C70.8589 105.924 70.7567 105.853 70.6499 105.791L67.4054 103.918C67.396 103.912 67.3867 103.907 67.3772 103.902C67.0666 103.736 66.6917 103.689 66.4006 103.491C66.1369 103.311 65.8768 103.126 65.6202 102.937C65.2708 102.679 65.1058 102.225 64.7987 101.918L62.1496 99.2689C61.9431 99.0624 61.737 98.8174 61.5692 98.5785L59.4158 95.5128C59.0811 95.0362 58.42 94.7942 58.1467 94.28C57.212 92.5215 56.4754 90.6416 55.9668 88.6701L55.6539 86.7679C55.6504 86.7465 55.6462 86.7254 55.6413 86.7046C55.5842 86.4595 55.4613 86.2294 55.4248 85.9804C55.3848 85.7065 55.349 85.4312 55.3177 85.1546C55.2558 84.6089 55.6143 84.0666 55.62 83.5173C55.62 83.5139 55.62 83.5105 55.62 83.5071V79.7607C55.62 79.2881 55.3728 78.8121 55.4435 78.3448C55.4783 78.1154 55.516 77.8869 55.5568 77.6595Z" fill="url(#paint0_linear_79_9108)"/>
<path fill-rule="evenodd" clip-rule="evenodd" d="M93.1082 31.5966C92.9381 31.9747 92.5287 32.1829 92.1217 32.1036C91.7157 32.0244 91.4133 31.6788 91.3966 31.2655L90.9503 20.2608C90.9318 19.8045 90.5854 19.4287 90.1321 19.3731C89.6782 19.3173 89.2509 19.5991 89.1232 20.0382L85.9302 31.0188C85.8862 31.1702 85.7426 31.2704 85.5852 31.2603C85.4288 31.2502 85.2995 31.1339 85.2741 30.9792L83.4215 19.6895C83.3476 19.2388 82.9581 18.908 82.5014 18.908C82.044 18.908 81.6542 19.2397 81.5809 19.6911L79.7768 30.8096C79.7386 31.0449 79.5407 31.2211 79.3028 31.2344C79.0681 31.2476 78.8545 31.0988 78.7873 30.8735L75.5664 20.074C75.4359 19.6364 75.0076 19.3577 74.5545 19.4156C74.1009 19.4736 73.7563 19.8521 73.7409 20.3091L73.3736 31.2156C73.3598 31.6242 73.0606 31.9664 72.6589 32.0421C72.2626 32.1167 71.8654 31.9131 71.7 31.5452L67.4028 21.9912C67.2152 21.5741 66.7528 21.3546 66.3111 21.473C65.8699 21.5912 65.5793 22.0115 65.6245 22.466L66.6853 33.129C66.7087 33.3642 66.5638 33.5834 66.339 33.6564C66.1182 33.7281 65.8766 33.6403 65.755 33.4425L59.9235 23.9542C59.6843 23.5651 59.1986 23.4065 58.7759 23.5794C58.3526 23.7527 58.1174 24.2073 58.2206 24.6528L60.6251 35.0352C60.7305 35.4904 60.5005 35.9563 60.079 36.158C59.6641 36.3565 59.1662 36.2497 58.8754 35.8933L52.3899 27.9462C52.1008 27.5919 51.5973 27.4996 51.2013 27.7282C50.8058 27.9566 50.6338 28.4378 50.7951 28.8651L54.4803 38.6272C54.596 38.9339 54.4804 39.2794 54.2058 39.4584C53.935 39.6349 53.5781 39.6047 53.3436 39.3822L45.7782 32.2041C45.4464 31.8893 44.9353 31.8616 44.5714 32.1387C44.2081 32.4154 44.0986 32.9145 44.3128 33.3179L49.161 42.448C49.3229 42.7528 49.2481 43.1289 48.985 43.3522C48.7279 43.5705 48.3551 43.5881 48.0812 43.3914L39.4119 37.1663C39.041 36.8999 38.5317 36.9414 38.2087 37.2644C37.8853 37.5878 37.8442 38.098 38.1116 38.469L44.2112 46.9316C44.454 47.2684 44.4244 47.7294 44.1455 48.037C43.873 48.3376 43.4304 48.4165 43.074 48.2227L34.1669 43.3812C33.7651 43.1627 33.2642 43.268 32.9843 43.6296C32.7047 43.9908 32.7278 44.5012 33.0389 44.8356L39.9519 52.2651C40.1972 52.5289 40.2227 52.9284 40.017 53.2241C39.8167 53.5118 39.447 53.6295 39.1191 53.5057L29.3927 49.8341C28.9654 49.6728 28.4842 49.8447 28.2558 50.2402C28.0272 50.6363 28.1195 51.1397 28.4738 51.4289L36.3331 57.8427C36.6631 58.1119 36.7554 58.5764 36.5597 58.9546C36.3689 59.3231 35.9521 59.5174 35.5489 59.4193L25.8845 57.0689C25.4401 56.9608 24.9829 57.1909 24.8051 57.6123C24.6274 58.033 24.7807 58.5205 25.1672 58.7639L33.5275 64.0297C33.8777 64.2503 34.0237 64.6861 33.883 65.0754C33.746 65.4545 33.3704 65.6959 32.9692 65.656L22.9934 64.6636C22.539 64.6184 22.1186 64.909 22.0004 65.3502C21.8821 65.7919 22.1015 66.2543 22.5186 66.4419L31.5863 70.5203C31.9358 70.6775 32.1244 71.0594 32.042 71.4336C31.962 71.7962 31.6473 72.0609 31.2762 72.0713L21.3319 72.3503C20.8754 72.3631 20.4953 72.7047 20.434 73.1573C20.3727 73.6105 20.649 74.0413 21.0865 74.1745L30.058 76.9052C30.6688 77.0911 31.0608 77.6813 31.009 78.3177C30.9584 78.9399 30.4954 79.4561 29.8792 79.5561L20.6522 81.0533C20.2007 81.1266 19.869 81.5164 19.869 81.9738C19.869 82.4305 20.1998 82.82 20.6505 82.8939L30.401 84.4939C30.678 84.5394 30.8844 84.774 30.8979 85.0544C30.9111 85.3279 30.737 85.5758 30.4745 85.6539L21.0312 88.4646C20.5934 88.5949 20.3145 89.0231 20.3722 89.4761C20.4299 89.9298 20.8082 90.2746 21.2653 90.2903L30.3132 90.6C30.9858 90.623 31.5458 91.1222 31.666 91.7843C31.7834 92.431 31.4527 93.0777 30.8534 93.3472L22.5186 97.096C22.1015 97.2836 21.8821 97.746 22.0004 98.1877C22.1186 98.6289 22.539 98.9195 22.9934 98.8743L32.6893 97.9098C32.963 97.8825 33.2178 98.0517 33.3022 98.3135C33.3848 98.5702 33.2824 98.8506 33.0523 98.9912L24.8592 103.999C24.4695 104.237 24.3097 104.722 24.4816 105.145C24.6538 105.569 25.1078 105.805 25.5536 105.703L34.0692 103.753C34.7725 103.592 35.4898 103.953 35.7999 104.605C36.1047 105.245 35.9429 106.014 35.3934 106.462L28.4738 112.109C28.1195 112.398 28.0272 112.901 28.2558 113.298C28.4842 113.693 28.9654 113.865 29.3927 113.704L38.1529 110.397C38.5653 110.241 39.0297 110.397 39.2721 110.765C39.5128 111.131 39.474 111.615 39.1727 111.932L32.7317 118.721C32.4169 119.052 32.3892 119.564 32.6663 119.927C32.943 120.291 33.4421 120.4 33.8455 120.186L41.9113 115.903C42.4033 115.642 43.0101 115.762 43.375 116.183C43.7379 116.602 43.7721 117.215 43.448 117.665L38.1116 125.069C37.8442 125.44 37.8853 125.95 38.2087 126.273C38.5317 126.596 39.041 126.638 39.4119 126.371L46.9718 120.943C47.3287 120.687 47.8156 120.716 48.1443 121.007C48.4717 121.298 48.5598 121.775 48.3509 122.16L43.9088 130.332C43.6903 130.734 43.7956 131.235 44.1572 131.515C44.5184 131.794 45.0288 131.771 45.3632 131.46L51.9966 125.288C52.4146 124.899 53.0466 124.857 53.5199 125.176C53.992 125.494 54.1902 126.095 53.9881 126.627L50.7753 135.093C50.613 135.52 50.7848 136.002 51.1808 136.231C51.5763 136.459 52.079 136.368 52.3684 136.014L58.2821 128.794C58.5386 128.481 58.9785 128.39 59.3408 128.571C59.7032 128.751 59.8962 129.158 59.8006 129.551L57.5963 138.614C57.4882 139.059 57.7184 139.516 58.1397 139.694C58.5605 139.871 59.048 139.718 59.2914 139.332L64.081 131.727C64.4048 131.213 65.0419 130.996 65.617 131.192C66.1944 131.39 66.5682 131.955 66.5068 132.562L65.6018 141.498C65.5557 141.953 65.8464 142.374 66.2882 142.492C66.7293 142.61 67.1912 142.392 67.3793 141.976L71.0701 133.809C71.3313 133.231 71.9575 132.914 72.5805 133.032C73.2088 133.152 73.6808 133.684 73.7056 134.323L74.0526 143.272C74.0703 143.729 74.4168 144.106 74.8707 144.162C75.324 144.217 75.7509 143.937 75.8792 143.498L78.5377 134.416C78.6399 134.067 78.9704 133.836 79.3336 133.857C79.7007 133.877 80.0072 134.148 80.066 134.511L81.5809 143.847C81.6542 144.298 82.044 144.63 82.5014 144.63C82.9581 144.63 83.3476 144.299 83.4215 143.848L84.9397 134.597C85.0103 134.167 85.3718 133.844 85.8068 133.814C86.246 133.784 86.649 134.06 86.7741 134.482L89.436 143.465C89.5659 143.904 89.9946 144.183 90.4483 144.125C90.9013 144.067 91.2457 143.69 91.2619 143.233L91.5858 134.099C91.6069 133.504 92.0407 133.005 92.6241 132.885C93.2152 132.764 93.8145 133.061 94.063 133.611L97.647 141.542C97.8351 141.958 98.2969 142.177 98.7381 142.059C99.1798 141.94 99.4705 141.519 99.4244 141.064L98.5075 132.01C98.4671 131.612 98.7093 131.239 99.0874 131.108C99.471 130.975 99.8967 131.124 100.109 131.47L105.08 139.591C105.319 139.981 105.805 140.14 106.228 139.967C106.651 139.794 106.886 139.341 106.784 138.895L104.719 129.905C104.581 129.307 104.878 128.694 105.426 128.417C105.985 128.133 106.669 128.269 107.066 128.754L112.658 135.581C112.947 135.934 113.45 136.026 113.845 135.798C114.242 135.569 114.413 135.087 114.251 134.659L110.983 126.048C110.823 125.628 110.976 125.154 111.346 124.899C111.726 124.638 112.236 124.672 112.571 124.989L119.268 131.32C119.6 131.634 120.11 131.661 120.474 131.385C120.838 131.108 120.947 130.608 120.732 130.204L116.338 121.965C116.13 121.576 116.219 121.095 116.548 120.8C116.883 120.499 117.384 120.468 117.75 120.731L125.596 126.387C125.967 126.655 126.478 126.613 126.801 126.29C127.124 125.967 127.165 125.458 126.899 125.087L121.252 117.223C120.968 116.827 120.996 116.289 121.312 115.918C121.636 115.539 122.181 115.433 122.619 115.67L130.875 120.139C131.277 120.356 131.777 120.25 132.057 119.889C132.336 119.528 132.313 119.016 132.001 118.682L125.415 111.629C125.141 111.336 125.105 110.892 125.325 110.555C125.549 110.211 125.982 110.066 126.366 110.211L135.62 113.724C136.048 113.886 136.53 113.714 136.759 113.318C136.987 112.922 136.895 112.42 136.542 112.13L128.872 105.848C128.53 105.568 128.428 105.09 128.618 104.691C128.814 104.283 129.267 104.062 129.707 104.168L139.153 106.448C139.597 106.555 140.053 106.324 140.23 105.904C140.408 105.482 140.254 104.994 139.867 104.751L131.463 99.479C131.128 99.2684 130.981 98.8554 131.104 98.4786C131.23 98.0921 131.607 97.8419 132.011 97.8828L142.025 98.897C142.48 98.9431 142.901 98.6524 143.02 98.2106C143.138 97.7695 142.919 97.3076 142.503 97.1196L133.158 92.8965C132.847 92.7561 132.675 92.4205 132.738 92.0854C132.802 91.743 133.096 91.4891 133.444 91.4799L143.69 91.2108C144.147 91.1988 144.528 90.857 144.589 90.4038C144.65 89.9512 144.375 89.5208 143.938 89.3871L134.417 86.4705C133.877 86.3051 133.524 85.7912 133.553 85.2275C133.583 84.649 134.007 84.162 134.579 84.0682L144.376 82.4605C144.827 82.3865 145.157 81.997 145.157 81.5403C145.157 81.083 144.826 80.6931 144.374 80.6199L133.802 78.9043C133.62 78.8748 133.482 78.7239 133.468 78.5401C133.454 78.3523 133.572 78.1796 133.753 78.1262L143.997 75.097C144.435 74.9673 144.715 74.5387 144.657 74.085C144.6 73.632 144.222 73.2874 143.766 73.2709L133.648 72.9065C133.101 72.8868 132.642 72.4899 132.53 71.9543C132.415 71.4079 132.69 70.8528 133.199 70.6229L142.503 66.4182C142.919 66.2301 143.138 65.7683 143.02 65.3271C142.901 64.8854 142.48 64.5947 142.025 64.6408L130.954 65.762C130.878 65.7697 130.806 65.7241 130.781 65.6517C130.719 65.4732 130.789 65.2753 130.951 65.177L140.175 59.5619C140.565 59.3241 140.726 58.8381 140.554 58.4144C140.382 57.9913 139.929 57.755 139.483 57.8561L129.506 60.122C128.968 60.2441 128.418 59.9768 128.17 59.4839C127.918 58.9819 128.041 58.3704 128.475 58.0144L136.542 51.4075C136.895 51.1181 136.987 50.6154 136.759 50.2199C136.53 49.8238 136.048 49.6521 135.62 49.8144L125.308 53.728C125.066 53.8199 124.793 53.7327 124.647 53.5191C124.497 53.3011 124.518 53.0081 124.7 52.8159L132.281 44.797C132.595 44.4651 132.622 43.9548 132.346 43.5915C132.069 43.2276 131.569 43.1184 131.165 43.3336L121.505 48.4851C121.191 48.653 120.802 48.5811 120.564 48.3151C120.323 48.0447 120.299 47.6427 120.51 47.3481L126.899 38.4509C127.165 38.0799 127.124 37.5706 126.801 37.2477C126.477 36.9243 125.967 36.8831 125.596 37.1506L116.487 43.7165C116.298 43.8523 116.041 43.8396 115.866 43.6875C115.688 43.5336 115.64 43.2771 115.752 43.0704L121.1 33.19C121.317 32.7884 121.211 32.2884 120.85 32.0088C120.489 31.7289 119.977 31.7525 119.643 32.0646L111.552 39.6196C111.295 39.8598 110.906 39.8894 110.613 39.6947C110.318 39.4988 110.194 39.1252 110.32 38.7936L114.231 28.4316C114.392 28.0044 114.22 27.5231 113.825 27.2948C113.429 27.0661 112.925 27.1584 112.636 27.5128L105.441 36.3297C105.323 36.4749 105.119 36.5183 104.951 36.4353C104.783 36.3521 104.694 36.1634 104.738 35.9807L107.409 24.9126C107.516 24.4686 107.286 24.0124 106.865 23.8348C106.443 23.6569 105.955 23.8109 105.712 24.1983L99.8362 33.5643C99.632 33.8898 99.2297 34.0292 98.866 33.9048C98.5023 33.7805 98.2686 33.4234 98.3066 33.0408L99.4017 22.0325C99.4469 21.5781 99.1563 21.1577 98.7152 21.0395C98.2734 20.9212 97.811 21.1406 97.6234 21.5577L93.1082 31.5966ZM82.2298 127.301C78.5813 127.301 75.0348 126.865 71.6395 126.041C67.4105 125.015 65.8446 120.135 68.0205 116.366L80.9712 93.9347C82.0663 92.038 81.4164 89.6126 79.5196 88.5175C77.6229 87.4224 75.1975 88.0723 74.1024 89.9691L60.9887 112.683C58.8525 116.383 53.9699 117.513 50.9174 114.524C42.6212 106.4 37.4731 95.0735 37.4731 82.5446C37.4731 70.4161 42.2974 59.4143 50.1318 51.3536C53.0891 48.3108 57.9644 49.2807 60.219 52.8753L74.7254 76.0037C75.8891 77.8591 78.3366 78.4199 80.1921 77.2561C82.0475 76.0924 82.6082 73.6448 81.4445 71.7894L67.2383 49.1396C64.9107 45.4285 66.3342 40.4623 70.5642 39.3234C74.2835 38.322 78.1943 37.7879 82.2298 37.7879C102.837 37.7879 120.192 51.7153 125.394 70.6709C126.535 74.8269 123.102 78.5546 118.792 78.5546H92.604C90.4004 78.5546 88.614 80.341 88.614 82.5446C88.614 84.7483 90.4004 86.5347 92.604 86.5347H118.792C123.102 86.5347 126.535 90.2623 125.394 94.4184C120.192 113.374 102.837 127.301 82.2298 127.301Z" fill="url(#paint1_linear_79_9108)"/>
<path d="M92.6478 82.3494C92.6478 87.9908 88.0746 92.564 82.4332 92.564C76.7919 92.564 72.2186 87.9908 72.2186 82.3494C72.2186 76.7081 76.7919 72.1348 82.4332 72.1348C88.0746 72.1348 92.6478 76.7081 92.6478 82.3494ZM77.6082 82.3494C77.6082 85.0142 79.7685 87.1744 82.4332 87.1744C85.098 87.1744 87.2582 85.0142 87.2582 82.3494C87.2582 79.6847 85.098 77.5244 82.4332 77.5244C79.7685 77.5244 77.6082 79.6847 77.6082 82.3494Z" fill="#CACCCB"/>
<g filter="url(#filter0_f_79_9108)">
<circle cx="82.4329" cy="82.3496" r="80.9187" transform="rotate(-14.4897 82.4329 82.3496)" stroke="url(#paint2_linear_79_9108)" stroke-width="1.59603"/>
<circle cx="82.4329" cy="82.3496" r="80.9187" transform="rotate(-14.4897 82.4329 82.3496)" stroke="url(#paint3_linear_79_9108)" stroke-opacity="0.6" stroke-width="1.59603"/>
</g>
</g>
<defs>
<filter id="filter0_f_79_9108" x="-0.899649" y="-0.982992" width="166.665" height="166.665" filterUnits="userSpaceOnUse" color-interpolation-filters="sRGB">
<feFlood flood-opacity="0" result="BackgroundImageFix"/>
<feBlend mode="normal" in="SourceGraphic" in2="BackgroundImageFix" result="shape"/>
<feGaussianBlur stdDeviation="0.798015" result="effect1_foregroundBlur_79_9108"/>
</filter>
<linearGradient id="paint0_linear_79_9108" x1="69.3459" y1="43.1684" x2="82.577" y2="120.506" gradientUnits="userSpaceOnUse">
<stop stop-color="#CDCDCD"/>
<stop offset="1" stop-color="#A3A3A3"/>
</linearGradient>
<linearGradient id="paint1_linear_79_9108" x1="50.3532" y1="26.3552" x2="120.137" y2="144.419" gradientUnits="userSpaceOnUse">
<stop offset="0.199056" stop-color="#EEEEEE"/>
<stop offset="1" stop-color="#909196"/>
</linearGradient>
<linearGradient id="paint2_linear_79_9108" x1="45.1656" y1="12.5233" x2="68.1484" y2="50.9078" gradientUnits="userSpaceOnUse">
<stop stop-color="#A8A8A8"/>
<stop offset="1" stop-color="#161918" stop-opacity="0"/>
</linearGradient>
<linearGradient id="paint3_linear_79_9108" x1="54.3428" y1="4.78252" x2="58.0136" y2="11.007" gradientUnits="userSpaceOnUse">
<stop stop-color="white"/>
<stop offset="1" stop-color="white" stop-opacity="0"/>
</linearGradient>
<clipPath id="clip0_79_9108">
<rect x="0.432983" y="0.349609" width="163.433" height="163.433" rx="81.7167" fill="white"/>
</clipPath>
</defs>
</svg>
