<svg width="32" height="28" viewBox="0 0 32 28" fill="none" xmlns="http://www.w3.org/2000/svg">
<path d="M15.8601 2.93397L16.7228 1.46378C17.2554 0.544913 18.443 0.235123 19.375 0.76019C20.3069 1.28526 20.6211 2.45616 20.0886 3.37502L11.7754 17.5623H17.7879C19.7371 17.5623 20.8288 19.8201 19.9821 21.3848H2.35451C1.27875 21.3848 0.416016 20.5342 0.416016 19.4736C0.416016 18.4129 1.27875 17.5623 2.35451 17.5623H7.29662L13.6234 6.7512L11.6476 3.36977C11.115 2.45091 11.4292 1.29051 12.3612 0.75494C13.2932 0.229873 14.4701 0.539662 15.0133 1.45853L15.8601 2.93397ZM8.38303 23.3538L6.51909 26.541C5.98654 27.4598 4.79894 27.7696 3.86697 27.2446C2.935 26.7195 2.62079 25.5486 3.15335 24.6297L4.53799 22.2669C6.1037 21.7891 7.3765 22.1567 8.38303 23.3538ZM24.4342 17.5728H29.4775C30.5533 17.5728 31.416 18.4234 31.416 19.4841C31.416 20.5447 30.5533 21.3953 29.4775 21.3953H26.6763L28.5669 24.6297C29.0994 25.5486 28.7852 26.709 27.8532 27.2446C26.9213 27.7696 25.7443 27.4598 25.2011 26.541C22.0164 21.096 19.6253 17.0215 18.0382 14.3069C16.414 11.5451 17.5749 8.77271 18.7199 7.83284C19.9927 9.98562 21.8939 13.2358 24.4342 17.5728Z" fill="white"/>
</svg>
