<svg width="32" height="32" viewBox="0 0 32 32" fill="none" xmlns="http://www.w3.org/2000/svg">
<g clip-path="url(#clip0_2006_28)">
<path d="M18.3776 10.2609C17.7485 10.3108 17.0218 10.3607 16.295 10.4583C15.1821 10.6015 14.0692 10.7968 13.1502 11.2313C11.3597 11.961 10.1492 13.5107 10.1492 15.7893C10.1492 18.6508 11.9888 20.1021 14.3108 20.1021C15.0867 20.1021 15.7151 20.0074 16.295 19.8613C17.2163 19.5706 17.9908 19.0369 18.9098 18.0694C19.4435 18.7961 19.5874 19.136 20.5079 19.9112C20.7495 20.0089 20.991 20.0089 21.1848 19.8628C21.7654 19.379 22.7807 18.5062 23.3144 18.0217C23.5552 17.8257 23.5074 17.5372 23.3628 17.2935C22.8291 16.6152 22.2984 16.0323 22.2984 14.7256V10.3629C22.2984 8.51815 22.4415 6.82313 21.0893 5.56417C19.975 4.54305 18.233 4.15765 16.8793 4.15765C16.6855 4.15765 16.4925 4.15765 16.2979 4.15765C13.8299 4.30227 11.2173 5.3667 10.6352 8.42345C10.5397 8.80885 10.8312 8.9564 11.0242 9.00558L13.7338 9.3462C14.0245 9.29482 14.1691 9.05403 14.2168 8.81032C14.4612 7.74662 15.3311 7.21294 16.2987 7.1153C16.3479 7.1153 16.3963 7.1153 16.4932 7.1153C17.0731 7.1153 17.7015 7.35902 18.0414 7.83985C18.4253 8.42345 18.3798 9.20012 18.3798 9.87695L18.3776 10.2609ZM17.8454 16.0294C17.507 16.7084 16.9256 17.1444 16.2965 17.2905C16.2003 17.2905 16.0564 17.3404 15.9103 17.3404C14.8459 17.3404 14.2146 16.5161 14.2146 15.3033C14.2146 13.7544 15.1351 13.0247 16.2965 12.6863C16.9256 12.5417 17.6523 12.4918 18.3784 12.4918V13.0739C18.3776 14.1897 18.4231 15.0611 17.8454 16.0294ZM28.9999 22.7602V22.9181C28.9742 23.8658 28.4743 25.6841 27.2909 26.6847C27.0546 26.8682 26.8175 26.7632 26.9217 26.4982C27.266 25.6577 28.0529 23.7065 27.6851 23.2594C27.4245 22.9181 26.3447 22.9438 25.4249 23.023C25.005 23.0759 24.6357 23.1001 24.3465 23.1574C24.0844 23.1816 24.0301 22.9467 24.2944 22.7632C24.6365 22.5261 25.0057 22.3425 25.4256 22.2082C26.9224 21.7619 28.66 22.0247 28.8971 22.3154C28.9485 22.3902 28.9999 22.5481 28.9999 22.7602ZM26.5025 24.6028C26.1604 24.8649 25.7941 25.1034 25.4249 25.3171C22.664 26.9768 19.0889 27.8431 15.9874 27.8431C10.9905 27.8431 6.52133 25.999 3.13057 22.9181C2.83987 22.6802 3.07698 22.3389 3.41906 22.5224C7.07336 24.6556 11.5954 25.9476 16.2752 25.9476C19.2211 25.9476 22.399 25.3941 25.4241 24.2071C25.6334 24.1308 25.8705 24.0221 26.0812 23.9458C26.5546 23.7322 26.976 24.2629 26.5025 24.6028Z" fill="white"/>
</g>
<defs>
<clipPath id="clip0_2006_28">
<rect width="26" height="26" fill="white" transform="translate(3 3)"/>
</clipPath>
</defs>
</svg>
