<svg width="32" height="32" viewBox="0 0 32 32" fill="none" xmlns="http://www.w3.org/2000/svg">
<g clip-path="url(#clip0_2006_13)">
<path d="M16.2155 9.80664C17.541 9.80664 18.7038 9.28904 19.7039 8.25384C20.7039 7.21863 21.204 6.01486 21.204 4.64254C21.204 4.49182 21.1921 4.27764 21.1683 4C20.9936 4.0238 20.8627 4.04363 20.7754 4.05949C19.5531 4.23401 18.4776 4.83293 17.5489 5.85621C16.6203 6.87952 16.156 7.97422 16.156 9.14032C16.156 9.27515 16.1758 9.49729 16.2155 9.80664ZM20.9659 28C21.9104 28 22.9541 27.3535 24.097 26.0605C25.24 24.7675 26.113 23.2484 26.7163 21.5032C24.4701 20.3451 23.347 18.6832 23.347 16.5176C23.347 14.709 24.2558 13.1621 26.0734 11.8771C24.8114 10.2985 23.1446 9.50916 21.073 9.50916C20.1999 9.50916 19.4023 9.64005 18.68 9.90183L18.2276 10.0684L17.6204 10.3064C17.2235 10.4571 16.8624 10.5325 16.537 10.5325C16.283 10.5325 15.9496 10.4452 15.5369 10.2707L15.0726 10.0803L14.6321 9.90183C13.9892 9.63212 13.2986 9.49726 12.5605 9.49726C10.5842 9.49726 8.99675 10.1636 7.79824 11.4963C6.59973 12.8289 6.00049 14.586 6.00049 16.7675C6.00049 19.8374 6.96087 22.6733 8.88165 25.2752C10.2151 27.0917 11.4334 28 12.5367 28C13.005 28 13.4693 27.9088 13.9296 27.7263L14.513 27.4883L14.9773 27.3218C15.6282 27.0917 16.2274 26.9767 16.7751 26.9767C17.3545 26.9767 18.0212 27.1235 18.7752 27.417L19.1443 27.5597C19.9142 27.8532 20.5214 28 20.9659 28Z" fill="white"/>
</g>
<defs>
<clipPath id="clip0_2006_13">
<rect width="20.7168" height="24" fill="white" transform="translate(6 4)"/>
</clipPath>
</defs>
</svg>
