<svg width="311" height="32" viewBox="0 0 311 32" fill="none" xmlns="http://www.w3.org/2000/svg">
<g opacity="0.4">
<mask id="mask0_2_1735" style="mask-type:alpha" maskUnits="userSpaceOnUse" x="0" y="0" width="311" height="32">
<rect x="311" y="32" width="311" height="32" rx="16" transform="rotate(-180 311 32)" fill="white"/>
</mask>
<g mask="url(#mask0_2_1735)">
<rect width="93.6591" height="5.79173" transform="matrix(0.604747 0.798152 -0.916397 0.403003 272.13 -35)" fill="#797979" fill-opacity="0.4"/>
<rect width="93.6591" height="5.79173" transform="matrix(0.604747 0.798152 -0.916397 0.403003 257.573 -35)" fill="#797979" fill-opacity="0.4"/>
<rect width="93.6591" height="5.79173" transform="matrix(0.604747 0.798152 -0.916397 0.403003 243.016 -35)" fill="#797979" fill-opacity="0.4"/>
<rect width="93.6591" height="5.79173" transform="matrix(0.604747 0.798152 -0.916397 0.403003 228.459 -35)" fill="#797979" fill-opacity="0.4"/>
<rect width="93.6591" height="5.79173" transform="matrix(0.604747 0.798152 -0.916397 0.403003 213.902 -35)" fill="#797979" fill-opacity="0.4"/>
<rect width="93.6591" height="5.79174" transform="matrix(0.604756 0.798148 -0.916403 0.402995 199.344 -34.999)" fill="#797979" fill-opacity="0.4"/>
<rect width="93.6591" height="5.79174" transform="matrix(0.604756 0.798148 -0.916403 0.402995 184.786 -34.9991)" fill="#797979" fill-opacity="0.4"/>
<rect width="93.6591" height="5.79174" transform="matrix(0.604756 0.798148 -0.916403 0.402995 170.228 -34.9991)" fill="#797979" fill-opacity="0.4"/>
<rect width="93.6591" height="5.79174" transform="matrix(0.604751 0.79815 -0.9164 0.402999 155.67 -34.999)" fill="#797979" fill-opacity="0.4"/>
<rect width="93.6591" height="5.79173" transform="matrix(0.604747 0.798152 -0.916397 0.403003 140.576 -35.001)" fill="#797979" fill-opacity="0.4"/>
<rect width="93.6591" height="5.79173" transform="matrix(0.604747 0.798152 -0.916397 0.403003 126.02 -35.001)" fill="#797979" fill-opacity="0.4"/>
<rect width="93.6591" height="5.79173" transform="matrix(0.604747 0.798152 -0.916397 0.403003 111.463 -35.002)" fill="#797979" fill-opacity="0.4"/>
<rect width="93.6591" height="5.79173" transform="matrix(0.604747 0.798152 -0.916397 0.403003 96.9058 -35.002)" fill="#797979" fill-opacity="0.4"/>
<rect width="93.6591" height="5.79174" transform="matrix(0.604756 0.798148 -0.916403 0.402995 82.3479 -35.001)" fill="#797979" fill-opacity="0.4"/>
<rect width="93.6591" height="5.79174" transform="matrix(0.604756 0.798148 -0.916403 0.402995 67.79 -35.001)" fill="#797979" fill-opacity="0.4"/>
<rect width="93.6591" height="5.79174" transform="matrix(0.604756 0.798148 -0.916403 0.402995 53.2322 -35.001)" fill="#797979" fill-opacity="0.4"/>
<rect width="93.6591" height="5.79174" transform="matrix(0.604751 0.79815 -0.9164 0.402999 38.6741 -35.001)" fill="#797979" fill-opacity="0.4"/>
<rect width="93.6591" height="5.79173" transform="matrix(0.604747 0.798152 -0.916397 0.403003 24.812 -35.002)" fill="#797979" fill-opacity="0.4"/>
<rect width="93.6591" height="5.79173" transform="matrix(0.604747 0.798152 -0.916397 0.403003 10.2549 -35.002)" fill="#797979" fill-opacity="0.4"/>
<rect width="93.6591" height="5.79174" transform="matrix(0.604756 0.798148 -0.916403 0.402995 -4.30298 -35.001)" fill="#797979" fill-opacity="0.4"/>
<rect width="93.6591" height="5.79174" transform="matrix(0.604756 0.798148 -0.916403 0.402995 -18.8608 -35.001)" fill="#797979" fill-opacity="0.4"/>
<rect width="93.6591" height="5.79174" transform="matrix(0.604756 0.798148 -0.916403 0.402995 -33.4189 -35.001)" fill="#797979" fill-opacity="0.4"/>
</g>
</g>
</svg>
