<svg width="22" height="22" viewBox="0 0 22 22" fill="none" xmlns="http://www.w3.org/2000/svg">
<path d="M0.938477 11.0187C0.938477 9.11634 1.41405 7.35391 2.35588 5.74068C3.29771 4.12744 4.57524 2.84991 6.18848 1.90808C7.80171 0.966252 9.55482 0.5 11.4478 0.5C12.8652 0.5 14.2267 0.779751 15.5228 1.32993C16.819 1.88011 17.9287 2.63544 18.8705 3.56794C19.8124 4.50044 20.5584 5.61945 21.1086 6.92496C21.6587 8.23046 21.9385 9.58259 21.9385 11.0187C21.9385 12.4361 21.6587 13.7975 21.1086 15.0937C20.5584 16.3899 19.803 17.5089 18.8705 18.4414C17.938 19.3739 16.819 20.1199 15.5228 20.6701C14.2267 21.2202 12.8745 21.5 11.4478 21.5C10.0211 21.5 8.65029 21.2202 7.35411 20.6701C6.05793 20.1199 4.93892 19.3646 3.99709 18.4321C3.05526 17.4996 2.31858 16.3806 1.75908 15.0937C1.19958 13.8068 0.938477 12.4454 0.938477 11.0187ZM3.25109 11.0187C3.25109 13.2287 4.05304 15.1496 5.66628 16.7815C7.27951 18.3948 9.20047 19.1967 11.4478 19.1967C12.9212 19.1967 14.2919 18.833 15.5415 18.0964C16.7911 17.3597 17.7982 16.3712 18.5348 15.1123C19.2715 13.8535 19.6445 12.492 19.6445 11.0187C19.6445 9.54529 19.2715 8.17451 18.5348 6.91563C17.7982 5.65675 16.8004 4.65897 15.5415 3.92229C14.2826 3.18561 12.9212 2.82194 11.4478 2.82194C9.97445 2.82194 8.60366 3.18561 7.35411 3.92229C6.10455 4.65897 5.09745 5.65675 4.35144 6.91563C3.60544 8.17451 3.25109 9.54529 3.25109 11.0187ZM10.6365 11.0187V4.80817C10.6365 4.59369 10.7111 4.40719 10.8603 4.25799C11.0095 4.10879 11.196 4.03419 11.4105 4.03419C11.625 4.03419 11.8115 4.10879 11.9607 4.25799C12.1099 4.40719 12.1845 4.59369 12.1845 4.80817V10.5431L15.5322 12.492C15.7187 12.6039 15.8306 12.7624 15.8865 12.9676C15.9425 13.1727 15.9145 13.3686 15.8026 13.5457C15.6534 13.8068 15.4296 13.9374 15.1312 13.9374C14.9727 13.9374 14.8421 13.9001 14.7395 13.8255L11.1774 11.746C11.0189 11.6994 10.8883 11.6061 10.7857 11.4756C10.6832 11.345 10.6365 11.1958 10.6365 11.0187Z" fill="white"/>
</svg>
