<svg width="25" height="24" viewBox="0 0 25 24" fill="none" xmlns="http://www.w3.org/2000/svg">
<path fill-rule="evenodd" clip-rule="evenodd" d="M12.9385 2.25C13.3527 2.25 13.6885 2.58579 13.6885 3V12C13.6885 12.4142 13.3527 12.75 12.9385 12.75C12.5243 12.75 12.1885 12.4142 12.1885 12V3C12.1885 2.58579 12.5243 2.25 12.9385 2.25Z" fill="white"/>
<path fill-rule="evenodd" clip-rule="evenodd" d="M21.3785 7.12487C21.5857 7.48355 21.4629 7.94227 21.1042 8.14945L5.52296 17.1494C5.16428 17.3566 4.70556 17.2338 4.49839 16.8751C4.29121 16.5165 4.41402 16.0577 4.7727 15.8506L20.354 6.85056C20.7126 6.64338 21.1713 6.76619 21.3785 7.12487Z" fill="white"/>
<path fill-rule="evenodd" clip-rule="evenodd" d="M10.3718 2.90342C10.5705 3.04401 10.6886 3.27225 10.6886 3.51563V10.2656C10.6886 10.5333 10.5459 10.7808 10.3141 10.9148L4.46414 14.2992C4.25354 14.421 3.99692 14.4331 3.77578 14.3317C3.55464 14.2302 3.39647 14.0278 3.35149 13.7886C3.24048 13.1985 3.18593 12.599 3.18857 11.9985C3.18769 9.98261 3.8123 8.01607 4.97629 6.37013C6.14065 4.72364 7.78733 3.47913 9.68909 2.80834C9.91861 2.72738 10.1731 2.76283 10.3718 2.90342ZM9.18857 4.65154C8.00269 5.25567 6.97566 6.14078 6.20099 7.23621C5.21593 8.62915 4.68748 10.2935 4.68857 11.9995L4.68856 12.0035C4.6879 12.1461 4.69108 12.2886 4.69808 12.4309L9.18857 9.83306V4.65154Z" fill="white"/>
<path fill-rule="evenodd" clip-rule="evenodd" d="M12.1884 2.99992C12.1884 2.5857 12.5243 2.24995 12.9385 2.25C14.6469 2.25019 16.3253 2.6993 17.8056 3.55233C19.2858 4.40536 20.5159 5.63237 21.3727 7.11046C22.2295 8.58854 22.6828 10.2658 22.6873 11.9742C22.6919 13.6827 22.2474 15.3623 21.3984 16.8449C20.5495 18.3275 19.3259 19.561 17.8501 20.4218C16.3744 21.2827 14.6984 21.7406 12.99 21.7499C11.2816 21.7591 9.60071 21.3192 8.11579 20.4744C6.63087 19.6295 5.39401 18.4093 4.52911 16.9359C4.31942 16.5787 4.439 16.1192 4.79621 15.9095C5.15343 15.6998 5.613 15.8194 5.82269 16.1766C6.55453 17.4232 7.6011 18.4557 8.85757 19.1706C10.114 19.8855 11.5363 20.2577 12.9819 20.2499C14.4275 20.2421 15.8456 19.8546 17.0943 19.1262C18.343 18.3978 19.3784 17.354 20.0967 16.0995C20.8151 14.845 21.1912 13.4238 21.1874 11.9782C21.1835 10.5326 20.7999 9.11338 20.075 7.8627C19.35 6.61201 18.3091 5.57377 17.0566 4.85197C15.8041 4.13018 14.3839 3.75016 12.9383 3.75C12.5241 3.74995 12.1884 3.41413 12.1884 2.99992Z" fill="white"/>
</svg>
