<svg width="25" height="24" viewBox="0 0 25 24" fill="none" xmlns="http://www.w3.org/2000/svg">
<path d="M12.9385 6V18M15.9385 9.5C15.9385 8.12 14.5955 7 12.9385 7C11.2815 7 9.93848 8.12 9.93848 9.5C9.93848 10.88 11.2815 12 12.9385 12C14.5955 12 15.9385 13.12 15.9385 14.5C15.9385 15.88 14.5955 17 12.9385 17C11.2815 17 9.93848 15.88 9.93848 14.5" stroke="white" stroke-width="1.5" stroke-linecap="round"/>
<path d="M7.93848 3.338C9.458 2.4589 11.183 1.99729 12.9385 2C18.4615 2 22.9385 6.477 22.9385 12C22.9385 17.523 18.4615 22 12.9385 22C7.41548 22 2.93848 17.523 2.93848 12C2.93848 10.179 3.42548 8.47 4.27648 7" stroke="white" stroke-width="1.5" stroke-linecap="round"/>
</svg>
