<svg width="13" height="23" viewBox="0 0 13 23" fill="none" xmlns="http://www.w3.org/2000/svg">
<path opacity="0.4" d="M9.32422 15.5586C9.32422 15.2227 9.26953 14.918 9.16016 14.6445C9.05859 14.3711 8.89062 14.1172 8.65625 13.8828C8.41406 13.6562 8.10547 13.4453 7.73047 13.25C7.35547 13.0547 6.90234 12.8672 6.37109 12.6875C5.60547 12.4297 4.91016 12.1484 4.28516 11.8438C3.66797 11.5312 3.14062 11.168 2.70312 10.7539C2.25781 10.3477 1.91406 9.875 1.67188 9.33594C1.4375 8.78906 1.32031 8.14844 1.32031 7.41406C1.32031 6.75781 1.42578 6.16016 1.63672 5.62109C1.85547 5.07422 2.16016 4.59766 2.55078 4.19141C2.94141 3.79297 3.41406 3.47266 3.96875 3.23047C4.53125 2.98047 5.15625 2.81641 5.84375 2.73828V0.195312H7.66016V2.76172C8.30859 2.84766 8.89453 3.02344 9.41797 3.28906C9.94141 3.54688 10.3906 3.88281 10.7656 4.29688C11.1797 4.76562 11.4961 5.32812 11.7148 5.98438C11.9414 6.63281 12.0547 7.375 12.0547 8.21094H9.26562C9.26562 7.69531 9.19922 7.23828 9.06641 6.83984C8.94141 6.43359 8.76172 6.09375 8.52734 5.82031C8.30859 5.57031 8.03906 5.375 7.71875 5.23438C7.40625 5.09375 7.05469 5.02344 6.66406 5.02344C6.21875 5.02344 5.83203 5.08594 5.50391 5.21094C5.18359 5.32812 4.91797 5.49609 4.70703 5.71484C4.51172 5.92578 4.36328 6.17578 4.26172 6.46484C4.16016 6.74609 4.10938 7.05859 4.10938 7.40234C4.10938 7.74609 4.16016 8.05078 4.26172 8.31641C4.37109 8.58203 4.54688 8.82422 4.78906 9.04297C5.02344 9.26953 5.33203 9.48047 5.71484 9.67578C6.09766 9.87109 6.56641 10.0664 7.12109 10.2617C7.88672 10.5352 8.57812 10.8281 9.19531 11.1406C9.8125 11.4453 10.3398 11.8008 10.7773 12.207C11.2148 12.6211 11.5469 13.0977 11.7734 13.6367C12.0078 14.1758 12.125 14.8086 12.125 15.5352C12.125 16.2227 12.0156 16.8398 11.7969 17.3867C11.5781 17.9258 11.2617 18.3906 10.8477 18.7812C10.4414 19.1797 9.94922 19.5 9.37109 19.7422C8.79297 19.9766 8.14844 20.1289 7.4375 20.1992V22.4727H5.62109V20.1992C4.98047 20.1367 4.35938 19.9922 3.75781 19.7656C3.16406 19.5391 2.63672 19.2109 2.17578 18.7812C1.71484 18.3516 1.34766 17.8125 1.07422 17.1641C0.800781 16.5078 0.664062 15.7227 0.664062 14.8086H3.46484C3.46484 15.4102 3.55469 15.9141 3.73438 16.3203C3.91406 16.7188 4.14453 17.0352 4.42578 17.2695C4.70703 17.5117 5.02734 17.6836 5.38672 17.7852C5.74609 17.8789 6.10938 17.9258 6.47656 17.9258C6.94531 17.9258 7.35938 17.8672 7.71875 17.75C8.08594 17.6328 8.39062 17.4648 8.63281 17.2461C8.85938 17.043 9.03125 16.7969 9.14844 16.5078C9.26562 16.2188 9.32422 15.9023 9.32422 15.5586Z" fill="white"/>
</svg>
