<svg width="10" height="11" viewBox="0 0 10 11" fill="none" xmlns="http://www.w3.org/2000/svg">
<path d="M4.99992 0.166672C5.17673 0.166672 5.3463 0.23691 5.47132 0.361934L9.47132 4.36193C9.73167 4.62228 9.73167 5.04439 9.47132 5.30474C9.21097 5.56509 8.78886 5.56509 8.52851 5.30474L5.66659 2.44281L5.66658 10.1667C5.66658 10.5349 5.36811 10.8333 4.99992 10.8333C4.63173 10.8333 4.33325 10.5349 4.33325 10.1667L4.33325 2.44281L1.47132 5.30474C1.21097 5.56509 0.788863 5.56509 0.528514 5.30474C0.268165 5.04439 0.268165 4.62228 0.528514 4.36193L4.52851 0.361934C4.65354 0.23691 4.82311 0.166672 4.99992 0.166672Z" fill="#55CD0A"/>
</svg>
