<svg width="10" height="11" viewBox="0 0 10 11" fill="none" xmlns="http://www.w3.org/2000/svg">
<path d="M5.00008 10.8333C4.82327 10.8333 4.6537 10.7631 4.52868 10.6381L0.528678 6.63807C0.268328 6.37772 0.268328 5.95561 0.528678 5.69526C0.789028 5.43491 1.21114 5.43491 1.47149 5.69526L4.33341 8.55719L4.33342 0.833335C4.33342 0.465145 4.63189 0.166668 5.00008 0.166668C5.36827 0.166669 5.66675 0.465146 5.66675 0.833336L5.66675 8.55719L8.52868 5.69526C8.78903 5.43491 9.21114 5.43492 9.47149 5.69526C9.73184 5.95561 9.73184 6.37772 9.47149 6.63807L5.47149 10.6381C5.34646 10.7631 5.17689 10.8333 5.00008 10.8333Z" fill="#E94045"/>
</svg>
