<svg width="20" height="20" viewBox="0 0 20 20" fill="none" xmlns="http://www.w3.org/2000/svg">
<path d="M7.41027 18.71C5.9115 18.2625 4.55413 17.4346 3.47029 16.3069C3.81901 15.8933 4.03639 15.385 4.09462 14.8472C4.15285 14.3093 4.04928 13.7663 3.79716 13.2877C3.54503 12.809 3.15583 12.4165 2.67934 12.1603C2.20285 11.9041 1.66076 11.7958 1.12243 11.8495C0.999787 11.2487 0.938157 10.6371 0.938478 10.024C0.938478 9.07709 1.08346 8.16368 1.3535 7.30554H1.39156C1.85359 7.30569 2.30803 7.18808 2.71198 6.96381C3.11593 6.73954 3.45606 6.41601 3.70024 6.02378C3.94442 5.63154 4.0846 5.18355 4.10755 4.72209C4.1305 4.26063 4.03545 3.80093 3.83139 3.38641C4.89368 2.39725 6.17837 1.67822 7.577 1.29001C7.80462 1.73693 8.15143 2.11217 8.57908 2.37421C9.00672 2.63625 9.49852 2.77487 10.0001 2.77475C10.5016 2.77487 10.9934 2.63625 11.4211 2.37421C11.8487 2.11217 12.1955 1.73693 12.4231 1.29001C13.8218 1.67822 15.1065 2.39725 16.1687 3.38641C15.9632 3.80383 15.8682 4.26703 15.8929 4.73167C15.9176 5.19631 16.0612 5.64683 16.3098 6.04011C16.5585 6.43338 16.9039 6.75626 17.3131 6.97783C17.7222 7.19939 18.1814 7.31223 18.6466 7.30554C18.9225 8.1853 19.0625 9.10202 19.0617 10.024C19.0617 10.6493 18.9982 11.26 18.8777 11.8499C18.3394 11.7963 17.7973 11.9045 17.3208 12.1607C16.8443 12.4169 16.4551 12.8095 16.203 13.2881C15.9509 13.7668 15.8473 14.3098 15.9055 14.8476C15.9637 15.3855 16.1811 15.8937 16.5299 16.3073C15.4459 17.4349 14.0886 18.2627 12.5899 18.71C12.4139 18.1615 12.0682 17.683 11.6028 17.3435C11.1374 17.004 10.5762 16.8211 10.0001 16.8211C9.42398 16.8211 8.86277 17.004 8.39733 17.3435C7.93189 17.683 7.58626 18.1615 7.41027 18.71Z" stroke="white" stroke-width="1.5" stroke-linejoin="round"/>
<path d="M10.0002 13.1956C10.4167 13.1956 10.8291 13.1136 11.2139 12.9542C11.5987 12.7948 11.9483 12.5612 12.2428 12.2667C12.5373 11.9722 12.7709 11.6225 12.9303 11.2378C13.0897 10.853 13.1717 10.4405 13.1717 10.024C13.1717 9.60755 13.0897 9.19514 12.9303 8.81035C12.7709 8.42556 12.5373 8.07593 12.2428 7.78142C11.9483 7.48691 11.5987 7.2533 11.2139 7.09391C10.8291 6.93453 10.4167 6.85249 10.0002 6.85249C9.15902 6.85249 8.35232 7.18664 7.75754 7.78142C7.16276 8.3762 6.82861 9.1829 6.82861 10.024C6.82861 10.8652 7.16276 11.6719 7.75754 12.2667C8.35232 12.8615 9.15902 13.1956 10.0002 13.1956Z" stroke="white" stroke-width="1.5" stroke-linejoin="round"/>
</svg>
