<svg width="30" height="30" viewBox="0 0 30 30" fill="none" xmlns="http://www.w3.org/2000/svg">
<g clip-path="url(#clip0_4_1030)">
<path fill-rule="evenodd" clip-rule="evenodd" d="M22.747 24.9002C22.8196 24.8297 22.8793 24.745 22.9205 24.6504C23.8204 24.3599 24.4734 23.4951 24.4734 22.4734C24.4734 21.2136 23.4806 20.1927 22.2554 20.1927C21.0302 20.1927 20.0375 21.2136 20.0375 22.4734C20.0375 23.4669 20.6549 24.3118 21.5169 24.6247C21.5589 24.7301 21.6218 24.8239 21.7018 24.9002C20.688 25.0039 19.8171 25.6248 19.3426 26.5003C18.6363 25.1542 17.3103 24.1964 15.7638 24.0387C15.8736 23.9325 15.9632 23.8047 16.0253 23.6628C17.3797 23.2254 18.3619 21.9248 18.3619 20.3878C18.3619 18.4922 16.868 16.9559 15.0245 16.9559C13.1811 16.9559 11.6871 18.4922 11.6871 20.3878C11.6871 21.8825 12.6161 23.1532 13.9123 23.6237C13.9753 23.7814 14.0705 23.9225 14.19 24.0387C12.6815 24.1931 11.382 25.1085 10.6637 26.4041C10.1786 25.5799 9.33517 25.0006 8.35938 24.901C8.43202 24.8305 8.49174 24.7458 8.5329 24.6512C9.43283 24.3607 10.0858 23.4959 10.0858 22.4743C10.0858 21.2144 9.09304 20.1936 7.86784 20.1936C6.64265 20.1936 5.6499 21.2144 5.6499 22.4743C5.6499 23.4677 6.26734 24.3126 7.12933 24.6255C7.1713 24.7309 7.23426 24.8247 7.31416 24.901C6.46589 24.9873 5.71689 25.4372 5.21729 26.0953C7.78067 28.5188 11.2012 29.9994 14.9583 29.9994C18.7154 29.9994 22.2086 28.4872 24.7809 26.0173H24.7825C24.2837 25.4023 23.5613 24.9849 22.7462 24.9019L22.747 24.9002Z" fill="white"/>
<path fill-rule="evenodd" clip-rule="evenodd" d="M14.971 0.0351257C6.70304 0.0351257 0.000244141 6.79029 0.000244141 15.1228C0.000244141 17.9739 0.784909 20.6389 2.14863 22.9132C2.36934 22.4658 2.61104 22.0302 2.87371 21.609C1.9061 19.7264 1.35893 17.5891 1.35893 15.3224C1.35809 7.76208 7.43903 1.63363 14.9408 1.63363C22.4425 1.63363 28.5234 7.76208 28.5234 15.3224C28.5234 17.1611 28.1626 18.9144 27.5105 20.5163C27.8244 20.935 28.1181 21.3697 28.3875 21.8205C29.3811 19.8025 29.9409 17.529 29.9409 15.1228C29.9409 6.79029 23.2389 0.0351257 14.971 0.0351257Z" fill="white"/>
</g>
<defs>
<clipPath id="clip0_4_1030">
<rect width="30" height="30" fill="white"/>
</clipPath>
</defs>
</svg>
